<?xml version="1.0" encoding="iso-8859-1"?>
<!-- Generator: Adobe Illustrator 19.0.0, SVG Export Plug-In . SVG Version: 6.00 Build 0)  -->
<svg version="1.1" id="Capa_1" xmlns="http://www.w3.org/2000/svg" xmlns:xlink="http://www.w3.org/1999/xlink" x="0px" y="0px"
	 viewBox="0 0 512 512" style="enable-background:new 0 0 512 512;" xml:space="preserve">
<path style="fill:#FFA74F;" d="M406.819,94.218C366.462,56.05,312.9,35.03,255.999,35.03s-110.463,21.02-150.82,59.188
	c-40.734,38.524-63.167,89.851-63.167,144.525v48.267c0,66.125,53.605,119.73,119.73,119.73h188.514
	c66.125,0,119.73-53.605,119.73-119.73v-48.267C469.986,184.069,447.553,132.742,406.819,94.218z"/>
<path style="fill:#F2973D;" d="M92.012,287.01v-48.267c0-54.674,22.433-106.001,63.167-144.525
	c34.387-32.521,78.363-52.581,125.82-57.808c-8.24-0.908-16.582-1.379-25-1.379c-56.9,0-110.463,21.02-150.82,59.188
	c-40.734,38.524-63.167,89.851-63.167,144.525v48.267c0,66.125,53.605,119.73,119.73,119.73h50
	C145.617,406.74,92.012,353.135,92.012,287.01z"/>
<polygon style="fill:#FF99B1;" points="359.946,372.969 152.052,372.969 118.873,428.392 152.052,504.5 359.946,504.5 
	393.125,428.392 "/>
<circle style="fill:#E3B098;" cx="445.379" cy="238.74" r="41.759"/>
<polygon style="fill:#EFEDEE;" points="118.873,428.392 85.694,448.731 85.694,476.616 118.873,490.558 152.052,476.616 
	152.052,448.731 "/>
<polygon style="fill:#D4D2D3;" points="115.694,476.616 115.694,448.731 133.873,437.587 118.873,428.392 85.694,448.731 
	85.694,476.616 118.873,490.558 133.873,484.255 "/>
<polygon style="fill:#EFEDEE;" points="393.125,428.392 426.304,448.731 426.304,476.616 393.125,490.558 359.946,476.616 
	359.946,448.731 "/>
<path style="fill:#DC5A64;" d="M85.694,448.731h66.359c9.456-8.859,15.373-21.45,15.373-35.43c0-26.814-21.737-48.552-48.552-48.552
	c-26.814,0-48.552,21.737-48.552,48.552C70.321,427.281,76.238,439.872,85.694,448.731z"/>
<path style="fill:#BF4E57;" d="M100.321,413.301c0-21.578,14.081-39.858,33.552-46.179c-4.725-1.534-9.764-2.373-15-2.373
	c-26.814,0-48.552,21.737-48.552,48.552c0,13.98,5.917,26.571,15.373,35.43h30C106.238,439.872,100.321,427.281,100.321,413.301z"/>
<path style="fill:#DC5A64;" d="M426.304,448.731h-66.359c-9.456-8.859-15.373-21.45-15.373-35.43
	c0-26.814,21.737-48.552,48.552-48.552c26.814,0,48.552,21.737,48.552,48.552C441.677,427.281,435.76,439.872,426.304,448.731z"/>
<path style="fill:#FBC4AC;" d="M255.999,124.287c-84.627,77.738-184.252,73.02-184.279,73.019
	c-3.332,13.301-5.104,27.173-5.104,41.438c0,98.919,84.79,179.109,189.383,179.109s189.383-80.19,189.383-179.109
	c0-14.265-1.773-28.136-5.104-41.438C440.252,197.307,340.626,202.025,255.999,124.287z"/>
<path style="fill:#E3B098;" d="M117.569,360.956c-16.009-20.359-25.557-46.037-25.557-73.945v-48.267
	c0-14.509,1.595-28.777,4.678-42.638c-15.52,1.644-24.961,1.201-24.969,1.2c-0.006,0.025-0.011,0.051-0.018,0.076
	c-1.478-0.255-3.152-0.397-5.087-0.397c-23.063,0-41.759,18.696-41.759,41.759c0,23.063,18.696,41.759,41.759,41.759
	c1.936,0,3.611-0.143,5.09-0.398C79.404,310.885,95.491,338.597,117.569,360.956z"/>
<g>
	<path style="fill:#F98084;" d="M173.31,284.581h-25.24c-4.142,0-7.5-3.358-7.5-7.5s3.358-7.5,7.5-7.5h25.24
		c4.142,0,7.5,3.358,7.5,7.5S177.452,284.581,173.31,284.581z"/>
	<path style="fill:#F98084;" d="M363.928,284.581h-25.24c-4.142,0-7.5-3.358-7.5-7.5s3.358-7.5,7.5-7.5h25.24
		c4.142,0,7.5,3.358,7.5,7.5S368.07,284.581,363.928,284.581z"/>
</g>
<rect x="85.689" y="476.62" style="fill:#FBC4AC;" width="66.36" height="27.885"/>
<rect x="85.689" y="476.62" style="fill:#E3B098;" width="30" height="27.884"/>
<rect x="359.949" y="476.62" style="fill:#FBC4AC;" width="66.36" height="27.885"/>
<ellipse style="fill:#DC5A64;" cx="255.999" cy="459.48" rx="13.778" ry="20.882"/>
<path style="fill:#FFCE1C;" d="M297.006,24.204L282.899,7.5l-26.9,19.657L229.099,7.5l-14.106,16.704l-28.212-8.831l17.681,60.062
	c2.743,9.319,11.297,15.718,21.012,15.718h61.053c9.715,0,18.268-6.399,21.012-15.718l17.681-60.062L297.006,24.204z"/>
<path d="M160.69,257.342c4.142,0,7.5-3.358,7.5-7.5V231.31c0-4.142-3.358-7.5-7.5-7.5c-4.143,0-7.5,3.358-7.5,7.5v18.532
	C153.19,253.984,156.547,257.342,160.69,257.342z"/>
<path d="M351.308,257.342c4.142,0,7.5-3.358,7.5-7.5V231.31c0-4.142-3.358-7.5-7.5-7.5s-7.5,3.358-7.5,7.5v18.532
	C343.808,253.984,347.166,257.342,351.308,257.342z"/>
<path d="M255.999,283.534c8.808,0,17.08-3.684,22.694-10.106c2.726-3.119,2.408-7.857-0.711-10.583s-7.857-2.407-10.583,0.711
	c-2.765,3.164-6.921,4.978-11.4,4.978c-4.479,0-8.635-1.814-11.401-4.979c-2.726-3.119-7.464-3.437-10.583-0.71
	s-3.437,7.464-0.71,10.583C238.92,279.851,247.191,283.534,255.999,283.534z"/>
<path d="M34.511,276.057v10.954c0,35.135,14.406,68.389,39.764,92.39c-7.179,9.421-11.454,21.169-11.454,33.901
	c0,14.309,5.571,28.164,15.373,38.527V504.5c0,4.142,3.358,7.5,7.5,7.5h340.611c4.142,0,7.5-3.358,7.5-7.5v-52.671
	c9.802-10.364,15.373-24.218,15.373-38.527c0-12.732-4.274-24.48-11.453-33.901c25.357-24,39.763-57.259,39.763-92.39v-10.954
	c10.492-9.041,17.155-22.409,17.155-37.313c0-16.74-8.4-31.547-21.199-40.452c-8.403-41.577-29.606-79.388-61.469-109.522
	c-24.208-22.895-53.71-40.218-85.703-50.409l6.143-20.869c0.782-2.655,0.037-5.526-1.937-7.466
	c-1.974-1.941-4.857-2.636-7.498-1.809l-23.457,7.342L288.63,2.661c-2.541-3.008-6.976-3.54-10.155-1.216l-22.476,16.423
	L233.524,1.445c-3.18-2.324-7.614-1.792-10.155,1.216l-10.891,12.897l-23.457-7.342c-2.643-0.827-5.524-0.131-7.498,1.809
	s-2.719,4.811-1.937,7.466l6.143,20.869c-31.993,10.191-61.495,27.515-85.702,50.409c-31.864,30.135-53.067,67.946-61.47,109.522
	c-12.799,8.905-21.199,23.712-21.199,40.452C17.357,253.648,24.019,267.016,34.511,276.057z M49.511,287.01v-2.056
	c1.566,0.581,4.837,1.501,4.865,1.508c3.839,0.943,7.756,1.489,11.711,1.529c7.634,26.418,21.252,50.511,39.385,70.889
	c-7.591,1.869-14.575,5.287-20.602,9.901C62.324,347.588,49.511,318.133,49.511,287.01z M204.045,418.734
	c16.954,4.363,34.444,6.619,51.954,6.619c18.971,0,37.955-2.597,56.213-7.762c0.129-0.037,0.26-0.069,0.389-0.106
	c-6.76,14.684-20.169,26.275-36.784,31.482c-3.071-10.564-10.684-17.874-19.818-17.874c-9.134,0-16.746,7.309-19.818,17.874
	c-16.615-5.208-30.024-16.799-36.784-31.482C199.526,417.522,202.621,418.368,204.045,418.734z M255.999,446.093
	c2.213,0,6.278,5.081,6.278,13.381c0,8.301-4.065,13.382-6.278,13.382c-2.213,0-6.278-5.081-6.278-13.382
	C249.721,451.174,253.786,446.093,255.999,446.093z M118.45,372.252c11.852,10.971,25.095,20.475,39.435,28.301
	c0.523,1.594,0.954,3.217,1.276,4.864c2.186,11.182-0.553,23.167-7.312,32.331c-0.9,1.22-1.885,2.375-2.918,3.484H88.798
	c-7.101-7.611-10.978-17.424-10.978-27.93C77.821,390.806,96.007,372.479,118.45,372.252z M93.194,456.231h51.358v12.885H93.194
	V456.231z M93.193,484.116h51.359V497H93.193V484.116z M159.552,451.843c0.362-0.383,0.706-0.78,1.057-1.172
	c6.449-7.212,10.981-16.157,13.032-25.653c1.14-5.278,1.532-10.844,1.101-16.271c2.233,0.959,4.492,1.862,6.762,2.74
	c6.144,25.274,26.854,45.654,53.509,52.76c1.656,13.564,10.277,23.609,20.986,23.609c10.709,0,19.33-10.045,20.986-23.609
	c26.656-7.106,47.366-27.483,53.51-52.759c2.27-0.878,4.528-1.782,6.762-2.741c-0.033,0.414-0.051,0.83-0.075,1.245
	c-0.693,11.903,2.492,24.05,9.079,34.002c1.839,2.778,3.893,5.429,6.185,7.85V497H159.552V451.843z M418.804,456.231v12.885h-51.358
	v-12.885H418.804z M367.446,497v-12.884h51.359V497H367.446z M423.199,441.231h-60.132c-4.681-5.025-8.096-11.212-9.76-17.881
	c-1.867-7.482-1.6-15.47,0.806-22.798c14.341-7.827,27.583-17.331,39.435-28.301c22.442,0.228,40.628,18.555,40.628,41.05
	C434.177,423.807,430.3,433.62,423.199,441.231z M462.486,284.955v2.056c0,31.12-12.813,60.579-35.36,81.772
	c-6.027-4.615-13.011-8.032-20.602-9.902c18.133-20.378,31.751-44.471,39.385-70.889c1.751-0.018,3.494-0.131,5.234-0.332
	C455.009,287.22,458.838,286.308,462.486,284.955z M465.367,266.553c-4.632,3.339-10.085,5.472-15.752,6.166
	c0.32-1.642,0.607-3.291,0.88-4.941c1.588-9.592,2.387-19.311,2.387-29.034c0-9.431-0.762-18.859-2.251-28.171
	c-0.304-1.904-0.643-3.892-1.018-5.816c0.806,0.1,1.606,0.224,2.403,0.382c3.656,0.724,7.187,2.048,10.417,3.906
	c10.274,5.922,17.208,17.014,17.208,29.699C479.641,250.181,474.006,260.327,465.367,266.553z M212.752,31.362
	c2.882,0.902,6.023-0.012,7.971-2.318l9.596-11.363l21.256,15.532c2.636,1.926,6.214,1.926,8.85,0l21.256-15.532l9.596,11.363
	c1.948,2.307,5.089,3.221,7.971,2.318l14.812-4.636l-13.715,46.592c-1.792,6.086-7.473,10.336-13.817,10.336c0,0-61.025,0-61.053,0
	c-6.284,0-12.044-4.314-13.817-10.336l-13.715-46.592L212.752,31.362z M55.705,190.707c9.046-34.374,27.754-65.625,54.627-91.04
	c22.495-21.275,49.898-37.403,79.629-46.925l7.303,24.811c3.594,12.195,15.502,21.1,28.207,21.1c0,0,61.023,0,61.053,0
	c12.718,0,24.611-8.882,28.207-21.101l7.303-24.811c29.731,9.521,57.135,25.649,79.63,46.925
	c26.873,25.415,45.581,56.666,54.627,91.04c-0.103-0.023-0.208-0.039-0.311-0.062c-13.487-3.004-27.424-0.366-41.049-1.89
	c-10.362-1.159-20.611-3.154-30.764-5.498c-24.953-5.763-49.106-15.004-71.515-27.405c-18.476-10.212-35.959-22.744-51.582-37.088
	c-2.869-2.635-7.278-2.635-10.147,0c-10.748,9.873-22.179,18.788-34.247,26.715c-20.112,13.213-41.99,23.684-65.406,31.282
	c-3.86,1.253-6.073,5.589-4.818,9.449c1.252,3.852,5.602,6.066,9.448,4.819c4.355-1.413,14.895-5.294,15.887-5.68
	c29.738-11.567,56.904-27.752,81.05-48.289c1.055-0.897,2.117-1.784,3.16-2.698c73.133,64.049,155.155,70.119,178.314,70.484
	c0.249,1.171,0.488,2.344,0.711,3.521c3.726,19.674,3.77,39.958,0.186,59.656c-0.568,3.124-1.261,6.431-2.013,9.499
	c-14.069,57.254-58.6,103.608-116.538,123.005c-19.512,6.532-40.089,9.827-60.661,9.827c-20.546,0-41.168-3.31-60.661-9.827
	C137.399,381.129,92.868,334.774,78.799,277.52c-5.385-21.914-6.109-44.952-2.185-67.17c0.326-1.843,0.683-3.68,1.072-5.511
	c4.388-0.074,19.252-1.221,19.322-1.228c8.18-0.852,16.223-2.135,24.302-3.638c3.452-0.671,6.035-3.762,6.07-7.281
	c0.047-4.639-4.313-8.342-8.933-7.444c-13.565,2.633-27.346,4.389-41.175,4.592c-3.562,0.052-7.098-0.356-10.656-0.356
	c-3.554,0-7.13,0.389-10.6,1.161C55.913,190.669,55.808,190.684,55.705,190.707z M49.565,209.044
	c3.938-2.27,8.311-3.728,12.82-4.288c-2.178,11.177-3.27,22.6-3.27,33.987c0,11.252,1.308,22.272,3.154,33.35
	c0.04,0.208,0.073,0.417,0.114,0.625c-5.68-0.702-11.124-2.826-15.769-6.177c-8.629-6.227-14.257-16.367-14.257-27.798
	C32.357,226.058,39.292,214.966,49.565,209.044z"/>
<g>
</g>
<g>
</g>
<g>
</g>
<g>
</g>
<g>
</g>
<g>
</g>
<g>
</g>
<g>
</g>
<g>
</g>
<g>
</g>
<g>
</g>
<g>
</g>
<g>
</g>
<g>
</g>
<g>
</g>
</svg>
