<?xml version="1.0" encoding="iso-8859-1"?>
<!-- Generator: Adobe Illustrator 19.0.0, SVG Export Plug-In . SVG Version: 6.00 Build 0)  -->
<svg version="1.1" id="Capa_1" xmlns="http://www.w3.org/2000/svg" xmlns:xlink="http://www.w3.org/1999/xlink" x="0px" y="0px"
	 viewBox="0 0 512 512" style="enable-background:new 0 0 512 512;" xml:space="preserve">
<g>
	<path style="fill:#3A484A;" d="M371.065,380.155h-43.169l0,0l0,0l-31.265,62.174l31.265,62.175l0,0l0,0h63.187l7.5-3.152l7.5,3.152
		h41.739C447.822,388.59,371.065,380.155,371.065,380.155z"/>
	<path style="fill:#3A484A;" d="M184.106,380.155h-43.17c0,0-76.757,8.435-76.757,124.349h41.739l7.5-3.652l7.5,3.652h63.187
		l31.265-62.175L184.106,380.155z"/>
</g>
<path style="fill:#313D40;" d="M163.937,380.155h-23c0,0-76.757,8.435-76.757,124.349h23
	C87.18,388.59,163.937,380.155,163.937,380.155z"/>
<rect x="184.102" y="380.155" style="fill:#EFEDEE;" width="143.792" height="124.351"/>
<circle style="fill:#E3B098;" cx="256.003" cy="409.415" r="43.55"/>
<path style="fill:#3A484A;" d="M416.201,54.79c-9.697-31.736-41.224-51.539-74.028-46.518l-76.047,11.663
	c-6.715,1.025-13.536,1.025-20.251,0L169.828,8.273C137.025,3.252,105.498,23.053,95.8,54.79l-16.674,54.562L256,129.749
	l176.874-20.397L416.201,54.79z"/>
<path style="fill:#313D40;" d="M119.127,109.352l16.674-54.562c6.813-22.299,24.409-38.69,45.649-44.735l-11.621-1.782
	C137.025,3.253,105.498,23.055,95.8,54.791l-16.674,54.561L256,129.749l20-2.307L119.127,109.352z"/>
<polygon style="fill:#EFEDEE;" points="432.874,109.352 79.126,109.352 66.668,150.147 256,174.206 445.334,150.147 "/>
<polygon style="fill:#D4D2D3;" points="106.669,150.147 119.127,109.352 79.126,109.352 66.668,150.147 256,174.206 
	276.001,171.664 "/>
<circle style="fill:#C99C87;" cx="446.126" cy="239.843" r="42.922"/>
<path style="fill:#E3B098;" d="M71.004,198.249c-3.345,13.353-5.124,27.279-5.124,41.599c0,99.305,85.12,179.807,190.121,179.807
	s190.121-80.503,190.121-179.807c0-14.32-1.78-28.246-5.124-41.599l-184.996-30.423L71.004,198.249z"/>
<path style="fill:#C99C87;" d="M95.88,239.847c0-14.32,1.78-28.246,5.124-41.599l169.996-27.957l-15-2.467L73.695,197.806
	c-2.253-0.576-4.841-0.879-7.816-0.879c-23.704,0-42.922,19.216-42.922,42.921c0,23.705,19.216,42.922,42.922,42.922
	c1.955,0,3.728-0.143,5.363-0.396c20.201,78.778,95.249,137.282,184.757,137.282c5.049,0,10.051-0.19,15-0.556
	C173.012,411.865,95.88,334.378,95.88,239.847z"/>
<g>
	<path style="fill:#313D40;" d="M180.24,179.442l-85.016,18.806l5.989,38.974c2.181,14.189,14.388,24.664,28.744,24.664h58.192
		c13.998,0,26.498-8.762,31.272-21.921l15.135-41.716L180.24,179.442z"/>
	<path style="fill:#313D40;" d="M331.76,179.442l85.016,18.806l-5.989,38.974c-2.181,14.189-14.388,24.664-28.744,24.664h-58.192
		c-13.998,0-26.498-8.762-31.272-21.921l-15.135-41.716L331.76,179.442z"/>
</g>
<path style="fill:#3A484A;" d="M472.53,150.147H39.472c-13.287,0-24.059,10.771-24.059,24.058l0,0
	c0,13.287,10.771,24.059,24.059,24.059h433.059c13.287,0,24.059-10.771,24.059-24.059l0,0
	C496.589,160.918,485.817,150.147,472.53,150.147z"/>
<path style="fill:#313D40;" d="M55.413,174.206L55.413,174.206c0-13.287,10.771-24.058,24.059-24.058h-40
	c-13.287,0-24.059,10.771-24.059,24.058l0,0c0,13.287,10.771,24.059,24.059,24.059h40C66.184,198.265,55.413,187.493,55.413,174.206
	z"/>
<path d="M278.402,270.885c-3.12-2.727-7.857-2.408-10.583,0.71c-2.869,3.281-7.176,5.164-11.819,5.164s-8.951-1.882-11.819-5.164
	c-2.726-3.119-7.464-3.437-10.583-0.711c-3.119,2.726-3.438,7.464-0.711,10.583c5.717,6.54,14.141,10.292,23.113,10.292
	s17.395-3.751,23.112-10.292C281.839,278.349,281.521,273.611,278.402,270.885z"/>
<path d="M65.658,290.26c10.056,34.061,30.037,64.229,56.792,87.518c-9.345,3.909-21.227,10.756-32.31,22.646
	c-22.202,23.819-33.46,58.835-33.46,104.075c0,4.142,3.358,7.5,7.5,7.5h383.642c4.143,0,7.5-3.358,7.5-7.5
	c0-45.241-11.257-80.256-33.46-104.075c-11.083-11.89-22.964-18.738-32.31-22.646c26.753-23.289,46.736-53.458,56.792-87.518
	c27.701-0.12,50.202-22.687,50.202-50.417c0-13.677-5.485-26.309-14.605-35.515c12.821-4.012,22.15-16,22.15-30.126
	c0-17.401-14.157-31.559-31.559-31.559h-21.645l-10.836-35.485v-0.001l0,0l-16.674-54.561
	c-5.216-17.071-16.414-31.704-31.531-41.201c-15.115-9.496-33.157-13.238-50.807-10.537l-76.042,11.662
	c-5.968,0.911-12.019,0.911-17.982,0.001L170.962,0.856c-17.647-2.701-35.689,1.042-50.804,10.538
	c-15.117,9.498-26.315,24.13-31.531,41.201l-16.673,54.562l0,0l0,0l-10.837,35.486H39.471c-17.401,0-31.559,14.157-31.559,31.559
	c0,14.126,9.33,26.114,22.15,30.126c-9.12,9.206-14.604,21.838-14.604,35.515C15.458,267.573,37.958,290.14,65.658,290.26z
	 M61.877,275.041c-17.653-1.994-31.419-17.018-31.419-35.196c0-15.895,10.539-29.782,25.74-34.083h5.456
	c0,2.544-1.007,5.578-1.385,8.18c-1.232,8.482-1.891,17.255-1.891,25.902C58.378,251.658,59.548,263.46,61.877,275.041z
	 M223.852,205.761l-11.48,31.643c-3.685,10.156-13.418,16.979-24.222,16.979h-58.191c-10.73,0-19.701-7.698-21.331-18.303
	l-4.659-30.318h119.883V205.761z M408.032,205.761l-4.659,30.318c-1.63,10.605-10.601,18.303-21.332,18.303H323.85
	c-10.804,0-20.537-6.823-24.222-16.979l-11.48-31.643h119.884V205.761z M240.568,426.584c10.371,0.765,20.517,0,30.863,0
	c5.797-0.423,11.554-1.079,17.258-1.979c-5.776,12.403-18.382,20.86-32.689,20.86c-14.307,0-26.913-8.457-32.689-20.86
	C229.014,425.505,234.771,426.16,240.568,426.584z M101.112,410.652c13.093-14.046,27.301-19.668,35.096-21.832
	c12.485,9.031,26.041,16.609,40.396,22.584v85.595h-55.687v-34.897c0-4.143-3.358-7.5-7.5-7.5c-4.143,0-7.5,3.357-7.5,7.5v34.897
	H71.792C72.932,459.343,82.781,430.319,101.112,410.652z M191.606,416.97c4.86,1.59,9.774,2.987,14.733,4.207
	c5.365,22.73,25.844,39.286,49.662,39.286s44.297-16.556,49.662-39.286c4.959-1.219,9.873-2.617,14.733-4.207v80.029h-128.79V416.97
	z M410.888,410.652c18.331,19.666,28.18,48.691,29.321,86.347h-34.128v-34.897c0-4.143-3.357-7.5-7.5-7.5
	c-4.142,0-7.5,3.357-7.5,7.5v34.897h-55.687v-85.596c14.357-5.976,27.912-13.554,40.396-22.583
	C383.587,390.984,397.795,396.607,410.888,410.652z M289.365,409.259c-22.015,3.851-44.744,3.849-66.758-0.005
	c-71.105-12.448-127.874-63.888-144.362-129.846c-5.988-24.031-6.429-49.425-1.273-73.648h11.82l5.009,32.597
	c2.763,17.977,17.969,31.025,36.157,31.025h58.191c17.093,0,32.493-10.795,38.322-26.863l13.336-36.759h32.383l13.336,36.759
	c5.829,16.067,21.229,26.863,38.322,26.863h58.191c18.188,0,33.395-13.048,36.157-31.025l5.01-32.597h11.819
	c0.263,1.234,0.515,2.471,0.749,3.711c4.357,23.105,3.68,47.129-2.023,69.94C417.263,345.377,360.482,396.82,289.365,409.259z
	 M450.123,275.041c0.071-0.352,0.13-0.706,0.199-1.058c2.182-11.24,3.3-22.688,3.3-34.138c0-11.427-1.101-22.865-3.276-34.083h5.456
	c15.201,4.301,25.741,18.188,25.741,34.083C481.543,258.023,467.777,273.047,450.123,275.041z M102.973,56.978
	c4.163-13.624,13.1-25.302,25.166-32.883c12.065-7.58,26.467-10.567,40.552-8.412l76.052,11.664
	c7.47,1.141,15.045,1.141,22.52-0.001l76.045-11.663c14.088-2.156,28.489,0.832,40.554,8.412
	c12.065,7.581,21.003,19.259,25.166,32.883l13.712,44.87h-240.55c-4.142,0-7.5,3.358-7.5,7.5c0,4.142,3.358,7.5,7.5,7.5h245.131
	l7.877,25.795H76.8l7.877-25.795h67.514c4.143,0,7.5-3.358,7.5-7.5c0-4.142-3.357-7.5-7.5-7.5H89.26L102.973,56.978z
	 M22.913,174.203c0-9.13,7.428-16.559,16.559-16.559H472.53c9.13,0,16.559,7.428,16.559,16.559s-7.428,16.559-16.559,16.559H39.471
	C30.34,190.761,22.913,183.333,22.913,174.203z"/>
<g>
</g>
<g>
</g>
<g>
</g>
<g>
</g>
<g>
</g>
<g>
</g>
<g>
</g>
<g>
</g>
<g>
</g>
<g>
</g>
<g>
</g>
<g>
</g>
<g>
</g>
<g>
</g>
<g>
</g>
</svg>
