<?xml version="1.0" encoding="iso-8859-1"?>
<!-- Generator: Adobe Illustrator 19.0.0, SVG Export Plug-In . SVG Version: 6.00 Build 0)  -->
<svg version="1.1" id="Capa_1" xmlns="http://www.w3.org/2000/svg" xmlns:xlink="http://www.w3.org/1999/xlink" x="0px" y="0px"
	 viewBox="0 0 512 512" style="enable-background:new 0 0 512 512;" xml:space="preserve">
<path style="fill:#A36549;" d="M409.396,67.699c-3.977-3.76-8.088-7.356-12.312-10.787L256,35.146L114.915,56.912
	c-4.224,3.431-8.335,7.026-12.312,10.787c-9.612,9.097-18.225,18.895-25.777,29.27l82.414,22.659l96.759-10.303l117.794,16.484
	l61.38-28.841C427.621,86.594,419.008,76.796,409.396,67.699z"/>
<path style="fill:#87543D;" d="M116.826,96.968c7.552-10.375,16.165-20.172,25.777-29.27c3.977-3.761,8.088-7.356,12.312-10.787
	L276,38.231l-20-3.085L114.915,56.911c-4.224,3.431-8.335,7.026-12.312,10.787c-9.612,9.097-18.225,18.895-25.777,29.27
	l82.414,22.659l28.834-3.07L116.826,96.968z"/>
<path style="fill:#FFA74F;" d="M397.084,56.912H114.915C154.251,24.932,203.734,7.5,256,7.5S357.749,24.932,397.084,56.912z"/>
<path style="fill:#F2973D;" d="M256,7.5c-52.265,0-101.749,17.432-141.085,49.411h40C189.194,29.042,231.182,12.226,276,8.363
	C269.389,7.793,262.718,7.5,256,7.5z"/>
<path style="fill:#FFA74F;" d="M456.015,461.476H55.984c-71.758-48.052-9.458-79.33-18.73-122.643s18.73-66.442,18.73-66.442
	l-17.628-57.674c0-42.715,13.455-83.41,38.47-117.749h358.347c25.015,34.339,38.47,75.034,38.47,117.749l-17.628,57.674
	c0,0,28.003,23.129,18.73,66.442C465.473,382.146,527.773,413.425,456.015,461.476z"/>
<path style="fill:#F2973D;" d="M77.254,338.833c-9.272-43.312,18.73-66.441,18.73-66.441l-17.628-57.674
	c0-42.715,13.455-83.411,38.47-117.75h-40c-25.015,34.339-38.47,75.035-38.47,117.75l17.628,57.674c0,0-28.003,23.129-18.73,66.441
	c9.272,43.313-53.028,74.591,18.73,122.643h40C24.226,413.425,86.526,382.146,77.254,338.833z"/>
<g>
	<circle style="fill:#E3B098;" cx="63.735" cy="224.87" r="42.4"/>
	<circle style="fill:#E3B098;" cx="448.269" cy="224.87" r="42.4"/>
</g>
<g>
	<path style="fill:#FBC4AC;" d="M119.572,363.683C96.463,380.755,60.991,425.046,60.991,504.5h58.581l26.856-82.662L119.572,363.683
		z"/>
	<path style="fill:#FBC4AC;" d="M392.428,363.683c23.109,17.072,58.581,61.363,58.581,140.817h-58.581l-26.856-82.662
		L392.428,363.683z"/>
</g>
<polygon style="fill:#E3B098;" points="329.149,352.33 182.851,352.33 146.431,421.842 156.6,443.478 260.464,471.413 
	355.4,443.478 365.568,421.842 "/>
<polygon style="fill:#F98084;" points="355.4,443.478 329.149,504.5 182.851,504.5 156.6,443.478 "/>
<path style="fill:#A36549;" d="M392.427,363.683V504.5h-63.278V352.33h43.827C372.976,352.33,381.259,355.431,392.427,363.683z"/>
<path style="fill:#E3B098;" d="M60.991,504.5h30c0-57.806,18.776-96.982,37.907-120.623l-9.326-20.194
	c-1.805,1.333-3.693,2.854-5.626,4.524C91.131,387.91,60.991,431.253,60.991,504.5z"/>
<path style="fill:#A36549;" d="M182.851,352.33V504.5h-63.279V363.683c11.168-8.252,19.451-11.353,19.451-11.353L182.851,352.33
	L182.851,352.33z"/>
<path style="fill:#87543D;" d="M139.023,352.33c0,0-8.283,3.101-19.451,11.354v33.142c9.98-15.545,20.938-26.447,30-33.142
	c11.167-8.251,19.45-11.353,19.451-11.354H139.023z"/>
<path style="fill:#FBC4AC;" d="M256,122.375c0,0-47.266,32.31-187.083,50.273c-3.382,13.504-5.182,27.586-5.182,42.068
	c0,100.425,86.08,181.835,192.265,181.835s192.265-81.41,192.265-181.835c0-14.482-1.8-28.564-5.182-42.068
	C303.266,154.684,256,122.375,256,122.375z"/>
<g>
	<path style="fill:#F98084;" d="M172.052,261.137h-25.625c-4.142,0-7.5-3.358-7.5-7.5s3.358-7.5,7.5-7.5h25.625
		c4.142,0,7.5,3.358,7.5,7.5S176.194,261.137,172.052,261.137z"/>
	<path style="fill:#F98084;" d="M365.572,261.137h-25.625c-4.142,0-7.5-3.358-7.5-7.5s3.358-7.5,7.5-7.5h25.625
		c4.142,0,7.5,3.358,7.5,7.5S369.714,261.137,365.572,261.137z"/>
</g>
<path d="M159.239,233.484c4.142,0,7.5-3.358,7.5-7.5V207.17c0-4.142-3.358-7.5-7.5-7.5s-7.5,3.358-7.5,7.5v18.814
	C151.739,230.126,155.097,233.484,159.239,233.484z"/>
<path d="M352.759,233.484c4.142,0,7.5-3.358,7.5-7.5V207.17c0-4.142-3.358-7.5-7.5-7.5s-7.5,3.358-7.5,7.5v18.814
	C345.259,230.126,348.616,233.484,352.759,233.484z"/>
<path d="M255.999,260.074c8.909,0,17.275-3.726,22.953-10.221c2.726-3.119,2.408-7.857-0.711-10.583s-7.856-2.408-10.583,0.711
	c-2.829,3.237-7.079,5.093-11.659,5.093c-4.58,0-8.831-1.856-11.66-5.093c-2.726-3.119-7.464-3.437-10.583-0.711
	c-3.119,2.727-3.437,7.464-0.71,10.583C238.724,256.349,247.09,260.074,255.999,260.074z"/>
<path d="M51.811,467.708c1.275,0.854,2.717,1.263,4.144,1.267c-1.627,11.392-2.464,23.238-2.464,35.525c0,4.142,3.358,7.5,7.5,7.5
	h390.018c4.142,0,7.5-3.358,7.5-7.5c0-12.287-0.837-24.133-2.464-35.525c1.427-0.004,2.869-0.414,4.144-1.267
	c51.589-34.546,39.769-63.583,29.34-89.202c-5.259-12.92-10.227-25.124-7.448-38.104c7.679-35.87-7.842-59.2-16.316-68.815
	c18.905-7.104,32.396-25.363,32.396-46.72c0-15.888-7.473-30.054-19.079-39.197c-4.715-33.393-17.746-65.525-37.844-93.116
	c-11.081-15.212-25.118-29.89-39.76-41.738C361.001,18.046,309.354,0,255.999,0C197.737,0,139.873,22.133,97.447,62.251
	c-9.871,9.342-18.85,19.538-26.688,30.308c-20.095,27.587-33.125,59.719-37.841,93.111c-11.606,9.144-19.079,23.31-19.079,39.198
	c0,21.357,13.491,39.615,32.396,46.72c-8.474,9.617-23.994,32.948-16.315,68.815c2.779,12.98-2.189,25.184-7.448,38.104
	C12.042,404.125,0.221,433.162,51.811,467.708z M112.072,497H68.599c0.911-31.086,7.527-58.943,19.702-82.905
	c7.763-15.278,16.415-26.263,23.77-33.828L112.072,497L112.072,497z M75.973,254.039c-4.812-19.62-5.944-40.085-3.417-60.125
	c0.615-4.868,1.433-9.709,2.478-14.503c39.939-5.328,95.365-15.006,142.347-31.563c20.444-7.204,32.731-13.412,38.618-16.728
	c5.886,3.315,18.173,9.523,38.617,16.728c46.983,16.557,102.408,26.234,142.348,31.563c0.612,2.809,1.148,5.634,1.613,8.472
	c3.588,21.893,2.736,44.556-2.541,66.108c-0.006,0.026-0.013,0.053-0.019,0.079c-17.572,71.588-82.011,126.426-161.044,134.068
	c-0.047,0.004-0.093,0.01-0.14,0.015c-14.029,1.461-28.286,1.087-42.29-0.5c-0.046-0.005-0.093-0.012-0.139-0.017
	C155.478,378.342,93.192,324.242,75.973,254.039z M190.35,393.574c16.157,5.337,32.89,8.644,49.987,9.898
	c27.384,2.009,55.228-1.274,81.311-9.895v42.4H190.35V393.574z M127.072,367.547c2.128-1.462,4.088-2.696,5.813-3.717
	c13.06,9.7,27.307,17.799,42.465,24.144V497h-48.278V367.547z M190.35,450.978h131.298V497H190.35L190.35,450.978L190.35,450.978z
	 M336.648,387.974c15.162-6.345,29.406-14.443,42.466-24.144c1.725,1.021,3.686,2.255,5.813,3.717V497h-48.279V387.974z
	 M399.927,497V380.268c7.355,7.565,16.007,18.549,23.77,33.828c12.175,23.962,18.791,51.819,19.702,82.905L399.927,497z
	 M448.898,274.759c0.435,1.309,1.231,2.499,2.34,3.415c0.245,0.203,24.397,20.675,16.173,59.09
	c-3.746,17.497,2.613,33.117,8.223,46.898c9.729,23.898,17.435,42.841-22.212,70.009c-3.579-16.785-9.029-32.456-16.353-46.871
	c-10.736-21.129-25.768-40.359-45.706-53.479c24.485-21.419,43.324-48.551,54.128-79.146c0.578,0.033,1.154,0.05,1.732,0.063
	C447.781,274.75,448.34,274.767,448.898,274.759z M456.145,258.856c-2.006,0.463-4.042,0.752-6.073,0.859
	c0.116-0.451,0.214-0.905,0.327-1.357c5.442-21.84,6.75-44.685,3.836-67.004c-0.039-0.295-0.065-0.593-0.105-0.888
	c0.193,0.033,1.268,0.24,1.612,0.315c15.812,3.451,27.417,17.927,27.417,34.086C483.159,241.399,471.602,255.272,456.145,258.856z
	 M373.996,49.412H138.003C172.575,27.1,213.702,15,255.999,15S339.424,27.1,373.996,49.412z M49.584,177.01
	c5.196-25.869,15.804-50.655,31.103-72.541h249.854c4.046,0,7.5-3.449,7.5-7.5c0-4.039-3.455-7.5-7.5-7.5H92.274
	c4.832-5.683,10.009-11.141,15.481-16.32c3.149-2.978,6.453-5.909,9.847-8.737h276.792c9.137,7.612,17.625,15.997,25.329,25.057
	h-59.184c-4.042,0-7.5,3.453-7.5,7.5c0,4.019,3.484,7.5,7.5,7.5h70.771c15.299,21.886,25.908,46.673,31.104,72.541
	c-1.311-0.387-2.64-0.713-3.98-0.991c-0.108-0.022-0.216-0.043-0.323-0.064c-0.625-0.125-6.738-0.786-6.759-0.879
	c-0.319-1.419-0.641-2.838-0.995-4.249c-0.75-2.994-3.258-5.223-6.32-5.617c-135.625-17.425-183.361-48.726-183.806-49.026
	c-2.537-1.734-5.896-1.73-8.444-0.014c-0.466,0.314-48.202,31.615-183.827,49.04c-3.062,0.394-5.57,2.623-6.32,5.617
	c-0.354,1.411-0.676,2.83-0.995,4.249c-2.378,0.146-4.748,0.457-7.08,0.944C52.225,176.296,50.895,176.622,49.584,177.01z
	 M28.839,224.868c0-12.372,6.472-23.259,16.207-29.457c3.871-2.464,8.294-4.183,12.823-4.945c-0.04,0.296-0.067,0.594-0.105,0.89
	c-2.944,22.624-1.523,46.247,4.162,68.358c-1.536-0.081-3.074-0.265-4.628-0.555C41.016,256.12,28.839,241.418,28.839,224.868z
	 M36.364,384.162c5.61-13.781,11.969-29.402,8.224-46.898c-8.146-38.047,15.205-58.272,16.173-59.09
	c1.109-0.916,1.905-2.107,2.34-3.415c0.105,0.001,0.211-0.004,0.316-0.004c0.106,0.001,0.211,0.008,0.318,0.008
	c0.348,0,0.697-0.018,1.046-0.025c0.346-0.007,0.69-0.01,1.037-0.025c0.23-0.01,0.461-0.024,0.691-0.038
	c10.805,30.594,29.643,57.727,54.128,79.146c-1.844,1.213-3.687,2.475-5.519,3.828l-0.002,0.001
	c-8.944,6.607-26.058,21.843-40.187,49.65c-7.324,14.415-12.774,30.085-16.353,46.87C18.929,427.003,26.635,408.061,36.364,384.162z
	"/>
<g>
</g>
<g>
</g>
<g>
</g>
<g>
</g>
<g>
</g>
<g>
</g>
<g>
</g>
<g>
</g>
<g>
</g>
<g>
</g>
<g>
</g>
<g>
</g>
<g>
</g>
<g>
</g>
<g>
</g>
</svg>
