<?xml version="1.0" encoding="iso-8859-1"?>
<!-- Generator: Adobe Illustrator 19.0.0, SVG Export Plug-In . SVG Version: 6.00 Build 0)  -->
<svg version="1.1" id="Capa_1" xmlns="http://www.w3.org/2000/svg" xmlns:xlink="http://www.w3.org/1999/xlink" x="0px" y="0px"
	 viewBox="0 0 511.999 511.999" style="enable-background:new 0 0 511.999 511.999;" xml:space="preserve">
<path style="fill:#D4835F;" d="M482.374,211.25C472.863,100.881,375.15,14.111,255.998,14.111S39.134,100.881,29.623,211.25
	c-9.799,101.698,29.844,103.822,29.844,145.09s20.741,66.968,20.741,66.968h351.58c0,0,20.741-25.7,20.741-66.968
	S492.172,312.948,482.374,211.25z"/>
<path style="fill:#A36549;" d="M59.622,211.25c9.109-105.7,99.117-189.741,211.376-196.665c-4.959-0.306-9.959-0.474-15-0.474
	c-119.153,0-216.865,86.768-226.375,197.139c-9.799,101.698,29.844,103.822,29.844,145.09s20.741,66.968,20.741,66.968h29.999
	c0,0-20.741-25.7-20.741-66.968S49.823,312.948,59.622,211.25z"/>
<path style="fill:#FBC4AC;" d="M122.548,454.118l-26.471-15.406l-26.471,15.406c-2.752,12.538-4.364,27.02-4.364,43.771h57.306
	l19.562-21.885L122.548,454.118z"/>
<path style="fill:#E3B098;" d="M96.077,438.713l-26.471,15.406l0,0c-2.751,12.538-4.364,27.02-4.364,43.771h29.999
	c0-16.751,1.613-31.233,4.364-43.771c0.895-4.07,1.918-7.917,3.038-11.585L96.077,438.713z"/>
<path style="fill:#FFCE1C;" d="M122.548,423.308h-42.34c-4.304,8.668-7.972,18.846-10.603,30.81h52.942l19.562-15.406
	L122.548,423.308z"/>
<path style="fill:#FBC4AC;" d="M389.448,454.118l26.471-15.406l26.471,15.406c2.751,12.538,4.364,27.02,4.364,43.771h-57.306
	l-19.562-21.885L389.448,454.118z"/>
<path style="fill:#FFCE1C;" d="M389.448,423.308h42.34c4.304,8.668,7.972,18.846,10.603,30.81h-52.942l-19.562-15.406
	L389.448,423.308z"/>
<path style="fill:#00A1E0;" d="M431.788,423.308h-42.34v74.581h-266.9v-74.581h-42.34c22.223-44.779,61.358-57.145,61.358-57.145
	H370.43C370.43,366.163,409.565,378.53,431.788,423.308z"/>
<path style="fill:#ECB000;" d="M80.208,423.308L80.208,423.308c-2.512,5.059-4.798,10.649-6.797,16.791
	c-0.24,0.738-0.477,1.48-0.709,2.234c-1.143,3.727-2.186,7.642-3.097,11.785h29.999c2.631-11.964,6.299-22.143,10.603-30.81l0,0
	H80.208z"/>
<path style="fill:#008FC7;" d="M171.566,366.163h-29.999c0,0-39.135,12.367-61.358,57.145h29.999
	C132.431,378.53,171.566,366.163,171.566,366.163z"/>
<polygon style="fill:#E3B098;" points="189.967,375.837 255.998,454.118 325.963,369.497 "/>
<path style="fill:#FFCE1C;" d="M347.783,375.986l-80.293,93.932c-2.873,3.36-7.072,5.295-11.492,5.295
	c-4.421,0-8.62-1.935-11.492-5.295l-80.293-93.932l22.983-19.645l68.8,82.5l68.801-82.5L347.783,375.986z"/>
<g>
	<path style="fill:#E3B098;" d="M503.193,117.365c-0.977-8.615-10.702-13.115-17.929-8.325
		c-18.322,12.145-47.376,36.196-51.93,68.853l7.118,85.906C498.721,241.203,508.625,165.247,503.193,117.365z"/>
	<path style="fill:#E3B098;" d="M8.803,117.365c0.977-8.615,10.702-13.115,17.929-8.325c18.322,12.145,47.376,36.196,51.93,68.853
		L71.546,263.8C13.275,241.203,3.372,165.247,8.803,117.365z"/>
</g>
<path style="fill:#FBC4AC;" d="M255.998,116.416c0,0-93.261-68.398-163.054,34.854c-14.273,21.114-22.931,45.578-24.745,70.999
	c-0.172,2.416-0.273,4.676-0.273,6.667c0,98.235,84.203,177.87,188.073,177.87s188.072-79.635,188.072-177.87
	c0-1.991-0.1-4.251-0.273-6.667c-1.814-25.421-10.473-49.885-24.745-70.999C349.26,48.018,255.998,116.416,255.998,116.416z"/>
<g>
	<path style="fill:#F98084;" d="M172.588,264.92h-25.46c-4.142,0-7.5-3.358-7.5-7.5s3.358-7.5,7.5-7.5h25.46
		c4.142,0,7.5,3.358,7.5,7.5S176.73,264.92,172.588,264.92z"/>
	<path style="fill:#F98084;" d="M364.869,264.92h-25.46c-4.142,0-7.5-3.358-7.5-7.5s3.358-7.5,7.5-7.5h25.46
		c4.142,0,7.5,3.358,7.5,7.5S369.011,264.92,364.869,264.92z"/>
</g>
<path d="M159.857,237.444c4.142,0,7.5-3.357,7.5-7.5V211.25c0-4.142-3.358-7.5-7.5-7.5s-7.5,3.358-7.5,7.5v18.693
	C152.357,234.087,155.715,237.444,159.857,237.444z"/>
<path d="M352.138,237.444c4.142,0,7.5-3.357,7.5-7.5V211.25c0-4.142-3.358-7.5-7.5-7.5s-7.5,3.358-7.5,7.5v18.693
	C344.639,234.087,347.997,237.444,352.138,237.444z"/>
<path d="M255.997,263.864c8.867,0,17.191-3.708,22.842-10.172c2.726-3.119,2.407-7.856-0.711-10.583
	c-3.12-2.727-7.857-2.407-10.583,0.711c-2.802,3.206-7.012,5.044-11.549,5.044c-4.538,0-8.748-1.838-11.549-5.044
	c-2.726-3.118-7.464-3.437-10.583-0.71c-3.119,2.726-3.437,7.464-0.711,10.583C238.807,260.157,247.132,263.864,255.997,263.864z"/>
<path d="M20.872,228.761c-2.355,53.083,10.157,75.981,20.247,94.412c6.061,11.07,10.848,19.813,10.848,33.166
	c0,34.484,13.549,58.675,19.585,67.745c-3.908,8.668-7.023,18.202-9.271,28.42c0,0.002-0.001,0.003-0.001,0.005
	c-3.012,13.721-4.539,28.988-4.539,45.379c0,4.142,3.358,7.5,7.5,7.5h381.513c4.142,0,7.5-3.358,7.5-7.5
	c0-16.389-1.527-31.656-4.538-45.379c0,0,0-0.001-0.001-0.002l0,0c-2.247-10.22-5.363-19.755-9.271-28.423
	c6.037-9.07,19.585-33.26,19.585-67.745c0-13.353,4.787-22.096,10.848-33.166c10.091-18.43,22.603-41.329,20.247-94.413
	c4.643-7.923,8.566-16.73,11.715-26.368c8.277-25.339,11.123-56.638,7.806-85.873c-1.095-9.652-9.255-16.932-18.979-16.932
	c-3.739,0-7.385,1.106-10.545,3.201c-6.065,4.02-13.561,9.522-21.07,16.36c-19.309-32.166-46.826-59.353-80.093-79.007
	C342.831,18.205,299.966,6.611,255.999,6.611c-44.769,0-88.304,11.999-125.9,34.698c-3.546,2.141-4.685,6.751-2.544,10.297
	c2.141,3.546,6.752,4.685,10.297,2.544c35.257-21.287,76.112-32.539,118.148-32.539c41.285,0,81.512,10.874,116.33,31.444
	c32.237,19.045,58.69,45.62,76.789,77.074c-7.739,8.738-13.609,17.77-17.603,27.02c-1.954-3.425-4.026-6.793-6.247-10.079
	c-27.076-40.056-60.724-60.365-100.01-60.365c-32.553,0-59.081,14.339-69.258,20.708c-10.177-6.369-36.707-20.708-69.257-20.708
	c-39.287,0-72.935,20.31-100.01,60.365c-2.221,3.286-4.293,6.654-6.247,10.079c-3.995-9.25-9.865-18.282-17.603-27.02
	c12.935-22.498,29.995-42.35,50.774-59.063c3.228-2.597,3.739-7.317,1.143-10.545c-2.597-3.228-7.317-3.739-10.545-1.144
	C83.099,76.394,65.547,96.473,51.949,119.15c-7.51-6.838-15.007-12.341-21.071-16.361c-3.159-2.094-6.806-3.201-10.545-3.201
	c-9.725,0-17.884,7.279-18.979,16.932c-3.317,29.235-0.472,60.534,7.806,85.873C12.305,212.031,16.229,220.839,20.872,228.761z
	 M54.276,315.97c-8.293-15.149-17.522-32.009-18.604-67.354c8.054,8.424,17.348,15.073,27.796,19.894
	c0.098,0.045,0.194,0.092,0.292,0.137c0.442,0.202,0.889,0.398,1.335,0.594c8.89,37.851,30.014,71.38,59.235,96.642
	c-0.247,0.138-0.499,0.282-0.749,0.425c-14.848,8.464-27.928,20.24-38.115,34.031c-1.982,2.683-3.864,5.441-5.631,8.27
	c-5.572-10.494-12.869-28.729-12.869-52.269C66.966,339.151,60.802,327.891,54.276,315.97z M255.887,414.305
	c0.037,0,0.074,0.001,0.11,0.001c0.038,0,0.075-0.001,0.112-0.001c1.466-0.001,10.129-0.257,10.829-0.294l-10.941,13.119
	l-10.941-13.12C245.756,414.047,253.777,414.305,255.887,414.305z M311.683,406.674c0,0-49.827,58.291-49.894,58.369
	c-3.003,3.513-8.583,3.509-11.584,0.001l-49.894-58.37c7.667,2.159,15.486,3.868,23.354,5.107c0,0,26.522,31.803,26.571,31.861
	c2.951,3.539,8.575,3.532,11.52,0l26.572-31.861C296.196,410.544,304.017,408.834,311.683,406.674z M115.048,446.619H79.242
	c1.614-5.576,3.528-10.862,5.726-15.811h30.08V446.619z M75.757,461.618h39.292v28.771H72.857
	C73.174,480.204,74.145,470.571,75.757,461.618z M130.048,423.308c0-4.142-3.358-7.5-7.5-7.5H93.05
	c2.577-4.035,5.416-7.911,8.49-11.582c9.729-11.639,21.914-21.476,35.593-28.091c9.29,6.742,19.185,12.646,29.535,17.673
	c1.621,0.787,3.25,1.562,4.89,2.31c0,0,67.224,78.644,67.248,78.672c8.898,10.41,25.497,10.396,34.385-0.001l67.247-78.671
	c1.639-0.747,3.267-1.518,4.886-2.308c10.351-5.029,20.249-10.933,29.539-17.675c0.035,0.017,0.073,0.036,0.108,0.053
	c4.575,2.224,8.951,4.822,13.146,7.696c10.793,7.397,20.216,16.75,27.79,27.413c1.05,1.478,2.064,2.982,3.04,4.51h-29.498
	c-4.142,0-7.5,3.358-7.5,7.5v67.081H130.048V423.308z M427.027,430.808c2.198,4.949,4.112,10.235,5.727,15.811h-35.807v-15.811
	H427.027z M396.947,490.389v-28.771h39.293c1.611,8.954,2.582,18.584,2.899,28.771H396.947z M457.719,315.97
	c-6.526,11.921-12.69,23.18-12.69,40.37c0,23.543-7.299,41.783-12.868,52.27c-3.427-5.484-7.273-10.716-11.49-15.619
	c-8.563-9.955-18.712-18.583-29.97-25.348c-0.196-0.118-2.893-1.885-3.037-1.761c29.221-25.262,50.346-58.791,59.235-96.643
	c0.446-0.195,0.892-0.391,1.333-0.593c0.1-0.046,0.199-0.094,0.298-0.14c10.447-4.821,19.74-11.47,27.793-19.892
	C475.242,283.962,466.013,300.822,457.719,315.97z M491.664,114.588c1.821,0,3.806,1.244,4.076,3.623
	c4.31,37.99-1.215,105.052-45.502,132.392c0.036-0.292,0.06-0.586,0.095-0.879c2.906-24.553-0.177-49.567-9.237-72.583
	c-0.014-0.034-0.025-0.069-0.039-0.104c0.314-1.795,0.715-3.582,1.194-5.34c0.037-0.137,0.082-0.273,0.12-0.41
	c6.35-22.657,24.715-40.437,43.45-53.551C486.872,116.998,490.885,114.588,491.664,114.588z M99.157,155.47
	c24.116-35.677,53.582-53.766,87.583-53.766c35.905,0,64.547,20.56,64.823,20.76c2.633,1.931,6.222,1.929,8.861,0.007
	c0.285-0.208,28.921-20.767,64.831-20.767c34,0,63.467,18.089,87.583,53.766c20.579,30.444,27.746,68.587,20.712,104.537
	c-10.055,51.268-44.511,94.562-91.56,118.71c-22.874,11.739-48.264,18.561-73.906,20.198c-8.045,0.514-16.132,0.505-24.176,0
	c-25.646-1.638-51.042-8.461-73.917-20.205c-47.041-24.143-81.5-67.444-91.55-118.72C71.424,224.11,78.625,185.844,99.157,155.47z
	 M16.255,118.211c0.332-2.92,3.807-4.594,6.334-2.919c7.489,4.964,17.43,12.409,26.414,21.906c0.08,0.084,0.157,0.168,0.236,0.252
	c8.306,8.832,15.763,19.421,19.663,31.435c0.018,0.054,1.878,7.252,2.036,8.152c-0.014,0.035-0.026,0.071-0.04,0.106
	c-2.692,6.682-4.933,14.009-6.608,21.167c-3.951,16.882-4.67,34.219-2.628,51.414c0.035,0.292,0.059,0.585,0.094,0.877
	c-0.691-0.427-1.374-0.863-2.046-1.309c-0.008-0.005-0.016-0.011-0.024-0.017C17.299,221.15,12.013,155.601,16.255,118.211z"/>
<g>
</g>
<g>
</g>
<g>
</g>
<g>
</g>
<g>
</g>
<g>
</g>
<g>
</g>
<g>
</g>
<g>
</g>
<g>
</g>
<g>
</g>
<g>
</g>
<g>
</g>
<g>
</g>
<g>
</g>
</svg>
