<?xml version="1.0" encoding="iso-8859-1"?>
<!-- Generator: Adobe Illustrator 19.0.0, SVG Export Plug-In . SVG Version: 6.00 Build 0)  -->
<svg version="1.1" id="Capa_1" xmlns="http://www.w3.org/2000/svg" xmlns:xlink="http://www.w3.org/1999/xlink" x="0px" y="0px"
	 viewBox="0 0 512.001 512.001" style="enable-background:new 0 0 512.001 512.001;" xml:space="preserve">
<g>
	<polygon style="fill:#D4835F;" points="314.757,369.264 197.245,369.264 169.164,436.882 197.245,504.5 314.757,504.5 
		342.839,436.882 	"/>
	<path style="fill:#D4835F;" d="M403.253,380.163c21.11,14.668,48.601,48.349,48.601,124.337h-80.931l14.984-113.132
		L403.253,380.163z"/>
	<path style="fill:#D4835F;" d="M108.75,380.163C87.64,394.831,60.149,428.512,60.149,504.5h80.931l-14.984-113.132L108.75,380.163z
		"/>
</g>
<path style="fill:#A36549;" d="M108.75,380.163c-21.11,14.668-48.601,48.349-48.601,124.336h30
	c0-61.057,17.749-94.795,35.675-113.307L108.75,380.163z"/>
<polygon style="fill:#EFEDEE;" points="141.079,356.882 104.175,375.334 121.656,393.786 104.175,412.239 121.656,430.691 
	104.175,449.143 121.656,467.595 104.175,486.048 141.079,504.5 "/>
<g>
	<rect x="141.081" y="369.26" style="fill:#00A1E0;" width="56.16" height="135.24"/>
	<rect x="314.761" y="369.26" style="fill:#00A1E0;" width="56.16" height="135.24"/>
</g>
<polygon style="fill:#EFEDEE;" points="370.923,356.882 407.828,375.334 390.347,393.786 407.828,412.239 390.347,430.691 
	407.828,449.143 390.347,467.595 407.828,486.048 370.923,504.5 "/>
<path style="fill:#FFCE1C;" d="M256.001,465.19c-41.483,0-75.232-33.629-75.232-74.965c0-41.335,33.749-74.965,75.232-74.965
	s75.232,33.629,75.232,74.965S297.484,465.19,256.001,465.19z M256.001,339.271c-28.244,0-51.222,22.858-51.222,50.954
	c0,28.097,22.978,50.955,51.222,50.955s51.222-22.858,51.222-50.955C307.223,362.129,284.245,339.271,256.001,339.271z"/>
<g>
	<circle style="fill:#A36549;" cx="62.251" cy="228.01" r="43.749"/>
	<circle style="fill:#A36549;" cx="449.751" cy="228.01" r="43.749"/>
</g>
<path style="fill:#D4835F;" d="M74.751,163.126c27.7-69.183,98.397-118.356,181.25-118.356s153.55,49.173,181.251,118.356v71.435
	l-52.58,85.78l-122.151,45.293l-130.386-44.606l-53.527-69.997L74.751,163.126z"/>
<path style="fill:#A36549;" d="M78.607,251.031l21.176,27.692c-4.896-16.107-7.529-33.119-7.529-50.715
	c0-22.842,4.416-44.716,12.496-64.881C130.762,98.159,194.693,50.84,270.999,45.314c-0.04-0.003-0.08-0.005-0.119-0.008
	c-2.432-0.174-4.876-0.308-7.331-0.398c-0.159-0.006-0.318-0.008-0.477-0.013c-21.203-0.719-42.516,1.796-62.928,7.603
	c-19.24,5.468-37.687,13.864-54.417,24.832c-23.152,15.185-43.067,35.408-57.534,59.04c-5.207,8.511-9.718,17.451-13.444,26.757
	L78.607,251.031z"/>
<path style="fill:#3A484A;" d="M437.252,163.126c-38.076,15.368-7.473,64.974-43.254,92.365
	c-51.108,41.566-87.228-41.566-137.997-41.566s-86.889,83.132-137.997,41.566c-35.781-27.391-5.178-76.997-43.254-92.365
	c-8.08,20.165-12.496,42.039-12.496,64.881c0,101.197,86.745,183.237,193.747,183.237s193.747-82.04,193.747-183.237
	C449.748,205.166,445.332,183.292,437.252,163.126z M256.001,329.87c-28.226,0-51.108-18.443-51.108-41.193
	s22.882-41.193,51.108-41.193s51.108,18.443,51.108,41.193C307.11,311.427,284.228,329.87,256.001,329.87z"/>
<path style="fill:#313D40;" d="M261.887,411.155c2.837-0.083,5.672-0.217,8.503-0.414c0.201-0.014,0.404-0.024,0.611-0.039
	C171.007,403.46,92.254,324.43,92.254,228.007c0-12.083,1.247-23.892,3.608-35.324c-2.022-12.76-6.528-23.671-21.111-29.557
	c-1.179,2.942-2.27,5.925-3.291,8.937c-6.086,17.962-9.206,36.979-9.206,55.943c0,36.548,11.867,72.74,33.089,102.449
	c20.306,28.425,48.846,50.885,80.924,64.602c25.107,10.736,52.442,16.187,79.734,16.187
	C257.963,411.245,259.925,411.213,261.887,411.155z"/>
<path style="fill:#3A484A;" d="M264.779,7.5h-17.556c-10.707,0-19.386,8.679-19.386,19.386v35.768
	c0,10.707,8.679,19.386,19.386,19.386h17.556c10.707,0,19.386-8.679,19.386-19.386V26.886C284.165,16.179,275.486,7.5,264.779,7.5z"
	/>
<path d="M150.995,211.144v18.959c0,4.142,3.358,7.5,7.5,7.5s7.5-3.358,7.5-7.5v-18.959c0-4.142-3.358-7.5-7.5-7.5
	S150.995,207.001,150.995,211.144z"/>
<path d="M346.007,211.144v18.959c0,4.142,3.358,7.5,7.5,7.5s7.5-3.358,7.5-7.5v-18.959c0-4.142-3.358-7.5-7.5-7.5
	S346.007,207.001,346.007,211.144z"/>
<path d="M278.377,271.191c-3.119-2.726-7.857-2.408-10.583,0.711c-2.862,3.274-7.16,5.152-11.793,5.152s-8.932-1.878-11.793-5.152
	c-2.725-3.118-7.463-3.437-10.583-0.711c-3.119,2.726-3.437,7.464-0.711,10.583c5.711,6.533,14.125,10.28,23.087,10.28
	c8.961,0,17.376-3.747,23.086-10.28C281.814,278.656,281.496,273.917,278.377,271.191z"/>
<path d="M256.004,143.603c19.255,0,37.723-2.579,53.41-7.457c3.955-1.23,6.165-5.434,4.934-9.389
	c-1.23-3.955-5.433-6.165-9.389-4.934c-14.263,4.436-31.191,6.78-48.955,6.78c-17.766,0-34.696-2.345-48.96-6.782
	c-3.955-1.23-8.159,0.979-9.389,4.935c-1.23,3.956,0.979,8.159,4.934,9.389C218.277,141.023,236.747,143.603,256.004,143.603z"/>
<path d="M168.519,155.313c-1.23,3.955,0.979,8.159,4.934,9.389c24.212,7.531,52.758,11.511,82.552,11.511
	c29.79,0,58.333-3.979,82.543-11.509c3.955-1.23,6.165-5.434,4.935-9.389s-5.433-6.166-9.389-4.935
	c-22.787,7.086-49.79,10.832-78.089,10.832c-28.303,0-55.308-3.747-78.097-10.834C173.953,149.148,169.749,151.357,168.519,155.313z
	"/>
<path d="M469.182,314.29c4.142,0,7.5-3.358,7.5-7.5v-35.206c14.581-9.045,24.316-25.192,24.316-43.576
	c0-28.206-22.905-51.16-51.092-51.246c-1.629-5.542-3.527-11.021-5.696-16.433c-9.989-24.944-25.164-47.284-45.104-66.399
	c-2.991-2.867-7.738-2.767-10.604,0.224c-2.866,2.99-2.766,7.737,0.224,10.604c16.683,15.993,29.74,34.412,38.881,54.83
	c-0.042-0.062-5.284,3.877-5.818,4.362c-0.068,0.062-0.13,0.126-0.197,0.188c-11.384,10.576-13.122,26.687-14.414,41.28
	c-1.398,15.793-2.724,30.764-15.112,41.935c-11.069,9.981-24.613,15.056-39.194,10.128c-0.017-0.006-0.035-0.012-0.052-0.018
	c-10.664-3.709-21.896-11.815-35.285-21.988c-14.685-11.158-29.761-22.612-46.765-27.089c-4.761-1.253-9.673-1.96-14.77-1.96
	c-8.538,0-16.934,2.078-24.754,5.426c-13.035,5.582-25.034,14.698-36.782,23.624c-0.106,0.081-0.212,0.161-0.319,0.242
	c-13.188,10.013-24.289,17.993-34.825,21.694c-0.1,0.034-0.199,0.071-0.299,0.105c-12.902,4.439-25.997,0.03-36.459-7.979
	c-14.841-11.361-16.25-27.272-17.741-44.118c-0.008-0.09-0.016-0.182-0.024-0.272c-1.581-17.256-4.328-35.705-20.403-45.558
	c24.152-53.929,75.205-92.986,135.942-104.093v7.159c0,14.469,12.242,26.886,26.886,26.886h17.556
	c14.825,0,26.886-12.061,26.886-26.886v-7.155c26.861,4.937,52.519,15.551,74.673,30.949c3.401,2.364,8.075,1.523,10.439-1.878
	c2.364-3.401,1.523-8.074-1.878-10.438c-24.645-17.131-53.298-28.766-83.234-33.859V26.886C291.665,12.061,279.604,0,264.779,0
	h-17.555c-14.825,0-26.886,12.061-26.886,26.886v13.383c-69.324,11.75-127.406,57.275-152.55,120.068
	c-2.165,5.404-4.063,10.882-5.692,16.425c-28.186,0.086-51.092,23.04-51.092,51.246c0,18.384,9.735,34.531,24.316,43.576v35.206
	c0,4.142,3.358,7.5,7.5,7.5s7.5-3.358,7.5-7.5v-28.95c3.796,0.909,7.751,1.406,11.82,1.415
	c9.377,31.823,27.259,60.315,51.174,83.125c0,0-12.482,6.241-12.494,6.247c-3.836,1.918-5.28,6.845-3.092,10.532
	c-21.936,18.388-45.08,54.567-45.08,125.342c0,4.142,3.357,7.5,7.5,7.5h391.705c4.142,0,7.5-3.358,7.5-7.5
	c0-70.774-23.145-106.954-45.08-125.341c0.906-1.527,1.254-3.342,0.94-5.125c-0.412-2.339-1.908-4.345-4.032-5.407l-12.494-6.247
	c23.914-22.81,41.796-51.302,51.173-83.125c4.069-0.009,8.024-0.505,11.821-1.415v28.95
	C461.682,310.932,465.039,314.29,469.182,314.29z M247.223,15h17.555c6.554,0,11.886,5.332,11.886,11.886v35.769
	c0,6.554-5.332,11.886-11.886,11.886c0,0-17.549,0-17.555,0c-6.357,0-11.886-5.371-11.886-11.886V26.886
	C235.337,20.332,240.669,15,247.223,15z M58.358,264.049c-18.163-1.95-32.354-17.37-32.354-36.042
	c0-18.668,14.185-34.085,32.343-36.04c-1.777,8.808-2.902,17.75-3.356,26.789c-0.003,0.067-0.008,0.134-0.012,0.201
	c-0.595,11.694-0.005,23.413,1.646,35.001C57.089,257.222,57.682,260.721,58.358,264.049z M378.423,492.364V379.395
	c2.785-2.026,5.522-4.126,8.189-6.283l8.814,4.407l-10.525,11.109c-2.74,2.893-2.74,7.424,0,10.316l12.595,13.294l-12.595,13.294
	c-2.74,2.893-2.74,7.424,0,10.316l12.595,13.294l-12.595,13.294c-2.74,2.893-2.74,7.424,0,10.316l10.525,11.109L378.423,492.364z
	 M300.525,440.984c-12.15,10.6-28.302,16.706-44.524,16.706c-20.323,0-40.194-9.587-52.905-25.435
	c-5.695-7.1-9.845-15.16-12.279-23.748c3.481,1.129,6.996,2.168,10.53,3.111c8.793,22.335,30.248,37.061,54.654,37.061
	c24.407,0,45.861-14.726,54.655-37.061c3.533-0.943,7.048-1.982,10.529-3.111c-2.434,8.588-6.584,16.648-12.279,23.748
	C306.382,435.403,303.569,438.328,300.525,440.984z M116.576,377.519l8.814-4.407c2.667,2.157,5.404,4.257,8.189,6.283v112.969
	l-17.003-8.501c0,0,10.522-11.107,10.524-11.109c2.706-2.856,2.704-7.462,0-10.316l-12.594-13.294L127.1,435.85
	c2.614-2.863,2.749-7.414,0-10.316l-12.594-13.294l12.594-13.294c2.706-2.857,2.704-7.462,0-10.316L116.576,377.519z
	 M256.001,433.68c-14.357,0-27.336-6.834-35.385-17.89c11.491,1.94,23.315,2.954,35.385,2.954c12.07,0,23.894-1.014,35.385-2.954
	C283.338,426.846,270.358,433.68,256.001,433.68z M67.741,497c1.519-60.793,21.491-91.424,40.179-106.807l3.404,3.594L98.73,407.081
	c-2.704,2.854-2.7,7.466,0,10.316l12.594,13.294c0,0-12.588,13.288-12.594,13.294c-2.701,2.852-2.696,7.47,0,10.316l12.594,13.294
	c0,0-12.581,13.28-12.594,13.294c-3.401,3.59-2.32,9.661,2.09,11.866l8.488,4.244L67.741,497L67.741,497z M148.582,389.316
	c8.2,4.913,16.765,9.259,25.589,12.984c0.307,2.074,0.705,4.132,1.168,6.177c2.488,10.991,7.522,21.911,14.405,31.074V497h-41.163
	L148.582,389.316L148.582,389.316z M204.745,454.917c0.294,0.233,0.599,0.451,0.896,0.68c11.05,8.496,24.382,14.174,38.23,16.199
	c4.013,0.587,8.073,0.894,12.129,0.894c3.743,0,7.5-0.26,11.208-0.765c13.975-1.903,27.451-7.471,38.696-15.982
	c0.451-0.341,0.908-0.675,1.351-1.026V497h-102.51V454.917z M363.419,497h-41.163v-57.449c7.594-10.11,12.821-22.013,15.105-34.45
	c0.171-0.931,0.33-1.864,0.469-2.802c8.84-3.733,17.399-8.078,25.589-12.983V497z M444.261,497h-41.568l8.488-4.244
	c2.125-1.062,3.62-3.068,4.032-5.407c0.412-2.339-0.308-4.735-1.942-6.459l-12.595-13.294l12.595-13.294
	c2.74-2.893,2.74-7.424,0-10.316l-12.595-13.294l12.595-13.294c2.74-2.893,2.74-7.424,0-10.316l-12.595-13.294l3.405-3.594
	C422.77,405.576,442.742,436.207,444.261,497z M307.291,396.965c-16.698,4.52-33.994,6.78-51.29,6.78
	c-17.291,0-34.59-2.277-51.287-6.779c-64.354-17.418-114.542-66.76-130-128.615c-4.567-18.275-5.99-37.331-4.218-56.083
	c0.822-8.702,2.326-17.331,4.498-25.791c0.016-0.06,2.348-8.487,3.751-12.579c0.012,0.009,0.024,0.018,0.036,0.026
	c9.852,7.693,10.053,21.239,11.079,32.593c0.007,0.076,0.014,0.149,0.021,0.224c1.452,16.405,3.237,36.564,19.934,51.684
	c12.796,11.587,29.358,18.791,46.759,15.25c15.335-3.053,29.406-12.99,43.043-23.284c12.863-9.705,25.803-20.655,41.183-26.134
	c7.564-2.701,15.525-3.585,23.422-1.968c15.274,3.127,29.961,14.282,44.235,25.129c14.51,11.025,29.427,22.352,45.766,25.998
	c18.386,4.103,36.525-3.687,49.584-16.519c13.567-13.332,16.71-32.03,18.314-50.155c0.853-9.6,1.099-20.575,7.058-28.65
	c1.122-1.521,2.52-2.977,4.043-4.168c0.011-0.008,0.023-0.017,0.034-0.025c1.404,4.092,2.638,8.228,3.715,12.398
	c0.014,0.06,0.021,0.121,0.036,0.181c3.005,11.705,4.724,23.731,5.137,35.83c0.527,15.461-1.122,31.044-4.86,46.057
	C421.823,330.211,371.639,379.548,307.291,396.965z M453.876,262.882c2.813-14.445,3.861-29.24,3.146-43.937
	c-0.002-0.035-0.004-0.07-0.006-0.106c-0.451-9.068-1.578-18.037-3.361-26.872c18.157,1.955,32.342,17.372,32.342,36.04
	c0,18.672-14.191,34.092-32.353,36.041C453.723,263.66,453.8,263.271,453.876,262.882z"/>
<path d="M299.366,255.953c-10.729-9.805-26.197-15.97-43.365-15.97c-27.397,0-58.608,18.354-58.608,48.694
	c0,30.243,31.329,48.693,58.608,48.693c17.168,0,32.636-6.165,43.365-15.97c9.467-8.652,15.243-20.137,15.243-32.723
	S308.832,264.605,299.366,255.953z M299.333,292.11c-2.292,18.161-21.48,28.483-38.122,30.021
	c-20.367,1.883-48.819-9.317-48.819-33.454c0-21.975,24.548-33.694,43.608-33.694c15.528,0,32.978,6.722,40.487,21.173
	C299.057,281.1,300.017,286.689,299.333,292.11z"/>
<g>
</g>
<g>
</g>
<g>
</g>
<g>
</g>
<g>
</g>
<g>
</g>
<g>
</g>
<g>
</g>
<g>
</g>
<g>
</g>
<g>
</g>
<g>
</g>
<g>
</g>
<g>
</g>
<g>
</g>
</svg>
