<?xml version="1.0" encoding="iso-8859-1"?>
<!-- Generator: Adobe Illustrator 19.0.0, SVG Export Plug-In . SVG Version: 6.00 Build 0)  -->
<svg version="1.1" id="Capa_1" xmlns="http://www.w3.org/2000/svg" xmlns:xlink="http://www.w3.org/1999/xlink" x="0px" y="0px"
	 viewBox="0 0 512 512" style="enable-background:new 0 0 512 512;" xml:space="preserve">
<g>
	<path style="fill:#87543D;" d="M166.954,367.366h-24.207c0,0-3.851,1.447-9.821,4.992l-31.541,91.219l31.541,40.923h34.029
		l23.654-17.829L166.954,367.366z"/>
	<path style="fill:#87543D;" d="M379.074,372.359c-1.671-0.988-3.169-1.814-4.462-2.486c-3.352-1.752-5.359-2.506-5.359-2.506
		h-24.207l-24.027,87.381l24.027,49.753h34.029l16.658-24.622v-65.205L379.074,372.359z"/>
</g>
<g>
	<path style="fill:#008FC7;" d="M444.798,504.5h-65.724V372.359c2.639,1.569,5.685,3.556,9.006,6.001
		C410.454,394.885,444.798,427.579,444.798,504.5z"/>
	<rect x="166.96" y="367.37" style="fill:#008FC7;" width="178.09" height="137.13"/>
	<path style="fill:#008FC7;" d="M132.925,372.359V504.5H67.201c0-76.921,34.345-109.615,56.718-126.14
		C127.24,375.914,130.287,373.928,132.925,372.359z"/>
</g>
<path style="fill:#007BAB;" d="M132.925,372.359c-2.639,1.569-5.685,3.556-9.006,6.001c-22.373,16.525-56.718,49.219-56.718,126.14
	h30c0-54.979,17.545-87.36,35.724-107.397V372.359z"/>
<ellipse style="fill:#FBC4AC;" cx="255.999" cy="220.56" rx="198.35" ry="187.59"/>
<path style="fill:#008FC7;" d="M475.515,178.608c-8.58-41.156-29.774-78.95-61.757-109.198C371.545,29.487,315.519,7.5,255.999,7.5
	c-59.518,0-115.545,21.987-157.758,61.91c-31.983,30.248-53.177,68.042-61.757,109.198H475.515z"/>
<path style="fill:#007BAB;" d="M138.242,69.41C175.69,33.992,224.014,12.706,276,8.349c-6.613-0.554-13.283-0.849-20-0.849
	c-59.518,0-115.545,21.987-157.758,61.91c-31.983,30.248-53.177,68.042-61.757,109.198h40
	C85.064,137.452,106.258,99.658,138.242,69.41z"/>
<g>
	<circle style="fill:#FBC4AC;" cx="57.647" cy="231.04" r="43.737"/>
	<circle style="fill:#FBC4AC;" cx="454.35" cy="231.04" r="43.737"/>
</g>
<path style="fill:#FF8840;" d="M48.849,219.252L48.849,219.252L48.849,219.252c-22.582,21.219-15.985,58.634,12.493,70.85l0,0l0,0
	c-13.963,27.663,5.033,60.565,35.971,62.304l0,0l0,0c-3.66,30.77,25.444,55.191,55.111,46.244l0,0l0,0
	c7.085,30.166,42.786,43.16,67.604,24.606l0,0c16.975,25.924,54.968,25.924,71.943,0l0,0c24.818,18.555,60.519,5.56,67.604-24.606
	l0,0l0,0c29.667,8.947,58.771-15.474,55.111-46.244l0,0l0,0c30.938-1.739,49.934-34.641,35.971-62.304l0,0l0,0
	c28.478-12.215,35.075-49.631,12.493-70.85l0,0l0,0l-52.535-57.898l-12.09,49.496c0,40.587-0.99,106.602-62.365,82.008
	c-61.375-24.593-37.571-31.347-80.161-31.347s-18.786,6.754-80.161,31.347s-62.365-41.422-62.365-82.008l-16.874-33.162
	L48.849,219.252z"/>
<path style="fill:#00A1E0;" d="M472.808,144.525H39.498c-10.315,0-18.678,8.362-18.678,18.678v28.969
	c0,10.315,8.362,18.678,18.678,18.678h433.31c10.315,0,18.678-8.362,18.678-18.678v-28.969
	C491.486,152.888,483.122,144.525,472.808,144.525z"/>
<path style="fill:#008FC7;" d="M60.819,192.172v-28.969c0-10.315,8.362-18.677,18.678-18.677h-40
	c-10.315,0-18.678,8.362-18.678,18.677v28.969c0,10.315,8.362,18.677,18.678,18.677h40C69.181,210.85,60.819,202.487,60.819,192.172
	z"/>
<path d="M156.176,270.637c4.142,0,7.5-3.358,7.5-7.5v-19.409c0-4.142-3.358-7.5-7.5-7.5s-7.5,3.358-7.5,7.5v19.409
	C148.676,267.279,152.035,270.637,156.176,270.637z"/>
<path d="M355.823,270.637c4.142,0,7.5-3.358,7.5-7.5v-19.409c0-4.142-3.358-7.5-7.5-7.5s-7.5,3.358-7.5,7.5v19.409
	C348.323,267.279,351.681,270.637,355.823,270.637z"/>
<path d="M255.999,308.258c9.123,0,17.688-3.814,23.501-10.463c2.726-3.119,2.408-7.857-0.711-10.583
	c-3.118-2.726-7.856-2.409-10.583,0.711c-2.963,3.391-7.413,5.335-12.207,5.335c-4.794,0-9.244-1.945-12.208-5.335
	c-2.727-3.118-7.464-3.437-10.583-0.711s-3.437,7.464-0.711,10.583C238.311,304.444,246.876,308.258,255.999,308.258z"/>
<path d="M35.347,277.17c4.098,6.63,9.701,12.263,16.444,16.408c-4.525,13.588-3.091,28.514,4.204,41.147
	c7.292,12.629,19.492,21.332,33.516,24.21c0.261,10.923,4.021,21.273,10.904,29.9C73.393,416.809,59.701,455.674,59.701,504.5
	c0,4.142,3.358,7.5,7.5,7.5h377.596c4.142,0,7.5-3.358,7.5-7.5c0-48.824-13.692-87.689-40.712-115.663
	c6.884-8.628,10.644-18.977,10.904-29.902c14.024-2.878,26.225-11.581,33.516-24.21c7.294-12.634,8.729-27.559,4.204-41.147
	c6.743-4.145,12.346-9.778,16.444-16.408c17.66-8.532,28.937-26.363,28.937-46.133c0-10.198-3.073-20.159-8.719-28.565
	c1.359-3.163,2.114-6.644,2.114-10.299v-28.969c0-14.435-11.743-26.178-26.178-26.178h-2.589
	c-10.803-25.217-26.357-48.128-46.292-68.163c-2.922-2.937-7.671-2.948-10.606-0.026c-2.937,2.922-2.948,7.67-0.026,10.606
	c17.019,17.103,30.606,36.431,40.497,57.583H127.65c-4.142,0-7.5,3.358-7.5,7.5s3.358,7.5,7.5,7.5h345.156
	c6.164,0,11.178,5.014,11.178,11.178c0,0,0,28.951,0,28.969c0,6.037-5.152,11.178-11.178,11.178c0,0-433.298,0-433.311,0
	c-6.016,0-11.177-5.163-11.177-11.177v-28.969c0-6.164,5.014-11.178,11.177-11.178h58.154c4.142,0,7.5-3.358,7.5-7.5
	s-3.358-7.5-7.5-7.5H58.208c10.799-23.115,25.964-43.986,45.187-62.167C144.21,36.258,198.406,15,255.999,15
	c49.953,0,96.794,15.654,135.459,45.27c3.288,2.518,7.996,1.895,10.515-1.394c2.519-3.288,1.895-7.996-1.394-10.515
	C359.273,16.723,309.279,0,255.999,0c-61.444,0-119.3,22.715-162.912,63.96c-22.347,21.135-39.583,45.698-51.302,73.065h-2.29
	c-14.434,0-26.177,11.743-26.177,26.178v28.969c0,3.55,0.713,6.935,1.999,10.024c-5.768,8.465-8.908,18.525-8.908,28.84
	C6.41,250.807,17.688,268.637,35.347,277.17z M111.372,399.069c0.076,0.052,0.154,0.101,0.23,0.153
	c4.232,2.889,8.917,5.152,13.823,6.638V497H74.813C76.076,455.147,88.082,422.985,111.372,399.069z M140.424,408.01
	c0.576-0.006,5.194-0.29,6.912-0.548c0.133-0.005,0.8,1.889,0.866,2.038c2.665,5.982,6.509,11.422,11.251,15.938V497h-19.029
	L140.424,408.01L140.424,408.01z M174.454,435.297c6.148,2.615,12.9,4.05,19.954,4.05c8.403,0,16.531-2.083,23.863-6.074
	c1.229,1.384,2.529,2.689,3.888,3.919c9.16,8.289,21.14,13.005,33.84,13.005c14.585,0,28.224-6.216,37.729-16.925
	c7.332,3.991,15.46,6.074,23.863,6.074c7.054,0,13.805-1.435,19.953-4.05V497h-163.09L174.454,435.297L174.454,435.297z
	 M352.544,425.438c2.589-2.465,4.923-5.209,6.949-8.199c2.046-3.019,3.817-6.349,5.167-9.777c2.287,0.343,4.599,0.522,6.912,0.548
	V497h-19.028V425.438z M386.573,497v-91.14c4.942-1.496,9.633-3.755,13.89-6.683c0.054-0.037,0.11-0.071,0.163-0.108
	c23.289,23.917,35.295,56.079,36.559,97.931L386.573,497L386.573,497z M472.807,218.35c1.193,0,2.392-0.088,3.574-0.25
	c0.033-0.005,0.066-0.008,0.098-0.013c3.655-0.515,7.068-1.786,10.079-3.653c2.628,5.101,4.031,10.798,4.031,16.602
	c0,7.541-2.318,14.684-6.414,20.613c0.185-8.302-1.675-16.44-5.363-23.755c-1.673-3.318-3.765-6.554-6.158-9.445
	c-0.027-0.033-0.052-0.067-0.078-0.099H472.807z M390.988,218.35c-0.383,36.279-4.219,72.346-31.067,72.351
	c-0.002,0-0.004,0-0.006,0c-5.956,0-13.009-1.616-20.965-4.804c-26.192-10.496-36.268-17.553-42.935-22.223
	c-10.479-7.34-14.988-9.662-40.015-9.662s-29.536,2.322-40.015,9.662c-6.667,4.67-16.742,11.728-42.935,22.223
	c-7.956,3.188-15.012,4.804-20.973,4.804c-8.244,0-19.937-2.619-26.288-25.266c-4.063-14.49-4.695-32.771-4.794-47.085H390.988z
	 M111.345,269.485c8.394,29.933,26.782,36.216,40.73,36.216c7.881,0,16.814-1.979,26.552-5.881
	c27.801-11.14,38.729-18.795,45.961-23.861c8.015-5.614,9.919-6.948,31.409-6.948s23.394,1.334,31.409,6.948
	c7.232,5.066,18.161,12.721,45.961,23.861c9.738,3.902,18.669,5.881,26.554,5.881c13.945-0.003,32.331-6.289,40.726-36.219
	c4.342-15.482,5.201-33.487,5.348-51.132h46.207c4.159,4.583,9.187,9.099,12.259,14.521c5.998,10.584,6.218,23.854,0.48,34.585
	c-3.746,6.952-9.754,12.54-17.242,15.753c-3.91,1.677-5.657,6.473-3.739,10.272c5.414,10.725,5.059,23.34-0.948,33.744
	s-16.754,17.018-28.749,17.692c-4.273,0.24-7.533,4.127-7.027,8.374c2.371,19.929-12.822,38.064-32.835,39.546
	c-4.259,0.315-8.573-0.134-12.663-1.368c-3.255-0.982-6.871,0.426-8.608,3.34c-1.132,1.9-1.395,4.324-2.155,6.388
	c-2.176,5.91-5.933,10.978-10.705,15.047c-6.396,5.222-14.458,8.098-22.703,8.098c-7.603,0-14.901-2.453-21.107-7.093
	c-3.405-2.546-8.434-1.662-10.766,1.898c-4.525,6.91-11.186,11.906-18.811,14.353c-7.036,2.258-14.736,2.258-21.771,0
	c-7.625-2.447-14.286-7.443-18.811-14.353c-2.33-3.558-7.354-4.447-10.765-1.898c-6.206,4.64-13.505,7.092-21.109,7.093
	c-8.326,0.001-16.562-2.982-22.954-8.314c-5.856-4.884-10.005-11.675-11.75-19.093c-0.976-4.149-5.384-6.698-9.467-5.465
	c-12.809,3.863-27.213-0.101-36.321-9.889c-7.074-7.603-10.401-17.989-9.177-28.289c0.493-4.143-2.7-8.131-7.027-8.374
	c-11.995-0.674-22.742-7.288-28.749-17.692c-6.006-10.404-6.361-23.017-0.949-33.742c1.931-3.826,0.187-8.591-3.738-10.274
	c-7.49-3.213-13.499-8.803-17.245-15.758c-7.23-13.501-4.654-31.141,6.166-41.991c2.523-2.53,5.394-4.765,8.089-7.111h44.692
	C106.147,235.999,107.005,254.008,111.345,269.485z M25.517,214.291c0.017,0.011,0.035,0.02,0.052,0.031
	c4.099,2.576,8.869,3.981,13.71,4.023c0.047,0,0.094,0.005,0.141,0.005c-2.402,2.883-6.216,9.505-6.244,9.561
	c-3.682,7.311-5.538,15.442-5.353,23.737c-4.095-5.928-6.414-13.071-6.414-20.612C21.41,225.175,22.84,219.428,25.517,214.291z"/>
<g>
</g>
<g>
</g>
<g>
</g>
<g>
</g>
<g>
</g>
<g>
</g>
<g>
</g>
<g>
</g>
<g>
</g>
<g>
</g>
<g>
</g>
<g>
</g>
<g>
</g>
<g>
</g>
<g>
</g>
</svg>
