<?xml version="1.0" encoding="iso-8859-1"?>
<!-- Generator: Adobe Illustrator 19.0.0, SVG Export Plug-In . SVG Version: 6.00 Build 0)  -->
<svg version="1.1" id="Capa_1" xmlns="http://www.w3.org/2000/svg" xmlns:xlink="http://www.w3.org/1999/xlink" x="0px" y="0px"
	 viewBox="0 0 512 512" style="enable-background:new 0 0 512 512;" xml:space="preserve">
<path style="fill:#D4D2D3;" d="M255.999,371.532H132.957c0,0-2.181,0.24-5.823,1.171h0.05v0.092l-0.05-0.092l-25.225,43.035
	l25.275,88.762h128.815l35.177-58.445L255.999,371.532z"/>
<path style="fill:#EFEDEE;" d="M384.864,372.703l-0.05,0.122v-0.122H384.864c-3.642-0.931-5.823-1.171-5.823-1.171H255.999V504.5
	h128.815l28.777-70.751L384.864,372.703z"/>
<g>
	<path style="fill:#FFA74F;" d="M97.185,418.292l-38.041,25.647c-2.76,8.824-4.952,18.719-6.384,29.805l37.212,13.798l37.212-27.849
		v-33.087L97.185,418.292z"/>
	<path style="fill:#FFA74F;" d="M414.813,418.292l38.041,25.647c2.76,8.824,4.952,18.719,6.384,29.805l-37.212,13.798
		l-37.212-27.849v-33.087L414.813,418.292z"/>
</g>
<path style="fill:#EFEDEE;" d="M59.144,443.939c27.963,0.402,53.174-9.741,68.04-17.333v-53.903h-0.05
	c-14.233,3.657-50.865,17.944-67.637,70.119L59.144,443.939z"/>
<path style="fill:#D4D2D3;" d="M452.854,443.939c-27.963,0.402-53.174-9.741-68.04-17.333v-53.903h0.05
	c14.233,3.657,50.865,17.944,67.637,70.119L452.854,443.939z"/>
<ellipse style="fill:#9E9C9D;" cx="255.999" cy="210.42" rx="214.56" ry="202.92"/>
<polygon style="fill:#FBC4AC;" points="470.556,210.417 418.834,280.09 255.999,339.458 93.164,280.09 41.442,210.417 
	93.164,140.744 255.999,81.376 418.834,140.744 "/>
<g>
	<path style="fill:#F98084;" d="M181.544,237.705h-22.727c-4.142,0-7.5-3.358-7.5-7.5s3.358-7.5,7.5-7.5h22.727
		c4.142,0,7.5,3.358,7.5,7.5S185.686,237.705,181.544,237.705z"/>
	<path style="fill:#F98084;" d="M353.181,237.705h-22.727c-4.142,0-7.5-3.358-7.5-7.5s3.358-7.5,7.5-7.5h22.727
		c4.142,0,7.5,3.358,7.5,7.5S357.323,237.705,353.181,237.705z"/>
</g>
<path style="fill:#E3B098;" d="M418.834,140.744L255.999,81.376L93.164,140.744l-51.721,69.673c0,0,10.793,14.539,20.786,28h22.417
	l8.091-13.957c8.753-15.099,27.902-36.677,69.421-53.736c29.374-12.069,63.578-18.991,93.842-18.991s64.468,6.922,93.842,18.991
	c41.519,17.059,60.668,38.638,69.421,53.736l8.091,13.957h22.417l20.786-28L418.834,140.744z"/>
<g>
	<path style="fill:#EFEDEE;" d="M255.999,39.018c178.437,0,214.557,171.399,214.557,171.399h-27.07
		c-34.397-59.334-124.45-86.683-187.486-86.683s-153.089,27.349-187.486,86.683h-27.07C41.442,210.417,77.562,39.018,255.999,39.018
		z"/>
	<path style="fill:#EFEDEE;" d="M255.999,381.816c178.437,0,214.557-171.399,214.557-171.399h-27.07
		c-34.398,59.334-124.45,86.683-187.487,86.683S102.91,269.751,68.513,210.417h-27.07
		C41.442,210.417,77.562,381.816,255.999,381.816z"/>
</g>
<g>
	<circle style="fill:#FFA74F;" cx="41.439" cy="210.42" r="27.07"/>
	<circle style="fill:#FFA74F;" cx="470.559" cy="210.42" r="27.07"/>
</g>
<g>
	<path style="fill:#9E9C9D;" d="M52.585,475.098c-1.102,9.001-1.705,18.779-1.705,29.402h76.305v-44.807
		c-17.394,7.317-40.708,14.28-66.452,14.28c-2.633,0-5.293-0.077-7.973-0.229L52.585,475.098z"/>
	<path style="fill:#9E9C9D;" d="M459.413,475.098c1.102,9.001,1.705,18.779,1.705,29.402h-76.305v-44.807
		c17.394,7.317,40.708,14.28,66.452,14.28c2.633,0,5.293-0.077,7.973-0.229L459.413,475.098z"/>
</g>
<path d="M170.181,213.178c4.142,0,7.5-3.358,7.5-7.5v-16.687c0-4.142-3.358-7.5-7.5-7.5s-7.5,3.358-7.5,7.5v16.687
	C162.681,209.82,166.039,213.178,170.181,213.178z"/>
<path d="M341.817,213.178c4.142,0,7.5-3.358,7.5-7.5v-16.687c0-4.142-3.358-7.5-7.5-7.5s-7.5,3.358-7.5,7.5v16.687
	C334.317,209.82,337.675,213.178,341.817,213.178z"/>
<path d="M255.999,236.762c8.146,0,15.799-3.41,20.996-9.355c2.726-3.119,2.408-7.857-0.711-10.583s-7.857-2.408-10.583,0.711
	c-2.348,2.687-5.885,4.227-9.703,4.227s-7.355-1.541-9.703-4.227c-2.727-3.118-7.464-3.437-10.583-0.711s-3.437,7.464-0.711,10.583
	C240.2,233.352,247.853,236.762,255.999,236.762z"/>
<path d="M255.999,59.868c-4.142,0-7.5,3.358-7.5,7.5v28.017c0,4.142,3.358,7.5,7.5,7.5s7.5-3.358,7.5-7.5V67.368
	C263.499,63.226,260.141,59.868,255.999,59.868z"/>
<path d="M208.638,67.873c-4.143,0-7.5,3.358-7.5,7.5v21.346c0,4.142,3.357,7.5,7.5,7.5c4.142,0,7.5-3.358,7.5-7.5V75.373
	C216.138,71.231,212.78,67.873,208.638,67.873z"/>
<path d="M161.277,85.216c-4.142,0-7.5,3.358-7.5,7.5v17.344c0,4.142,3.358,7.5,7.5,7.5c4.143,0,7.5-3.358,7.5-7.5V92.716
	C168.777,88.574,165.419,85.216,161.277,85.216z"/>
<path d="M113.916,114.567c-4.142,0-7.5,3.358-7.5,7.5v18.678c0,4.142,3.358,7.5,7.5,7.5s7.5-3.358,7.5-7.5v-18.678
	C121.416,117.925,118.058,114.567,113.916,114.567z"/>
<path d="M303.36,67.873c-4.142,0-7.5,3.358-7.5,7.5v21.346c0,4.142,3.358,7.5,7.5,7.5s7.5-3.358,7.5-7.5V75.373
	C310.86,71.231,307.502,67.873,303.36,67.873z"/>
<path d="M350.721,85.216c-4.142,0-7.5,3.358-7.5,7.5v17.344c0,4.142,3.358,7.5,7.5,7.5s7.5-3.358,7.5-7.5V92.716
	C358.221,88.574,354.863,85.216,350.721,85.216z"/>
<path d="M390.582,122.067v18.678c0,4.142,3.358,7.5,7.5,7.5s7.5-3.358,7.5-7.5v-18.678c0-4.142-3.358-7.5-7.5-7.5
	S390.582,117.925,390.582,122.067z"/>
<path d="M36.898,244.68c8.264,47.747,33.796,91.474,72.393,123.691c0.753,0.629,1.519,1.241,2.28,1.86
	c-18.714,8.265-45.379,27.26-59.225,70.332c-6.619,20.589-8.966,42.38-8.966,63.937c0,4.142,3.358,7.5,7.5,7.5
	c0,0,410.239,0,410.259,0c4.142,0,7.5-3.358,7.5-7.5c0-0.188-0.007-0.375-0.021-0.56c-0.042-21.363-2.407-43.012-8.977-63.414
	c-13.837-43.043-40.499-62.033-59.213-70.296c0.761-0.618,1.526-1.231,2.28-1.859c38.597-32.217,64.129-75.944,72.393-123.691
	c16.921-2.233,30.026-16.741,30.026-34.262s-13.105-32.029-30.026-34.262c-8.264-47.747-33.796-91.475-72.393-123.692
	C362.176,18.632,310.074,0,255.999,0c-54.074,0-106.177,18.632-146.708,52.463C70.694,84.68,45.162,128.408,36.898,176.155
	c-16.92,2.233-30.025,16.741-30.025,34.262S19.977,242.446,36.898,244.68z M71.312,227.898
	c14.897,19.122,36.49,35.799,63.327,48.782c3.729,1.805,8.214,0.244,10.018-3.485c1.804-3.729,0.243-8.214-3.485-10.018
	c-28.646-13.858-50.625-32.035-63.87-52.756c19.184-30.094,52.228-48.452,77.066-58.658c31.753-13.046,68.796-20.529,101.632-20.529
	c32.837,0,69.881,7.482,101.633,20.528c24.838,10.205,57.88,28.563,77.064,58.655c-19.184,30.091-52.226,48.449-77.064,58.654
	c-31.754,13.047-68.798,20.529-101.634,20.529c-28.152,0-59.43-5.471-88.071-15.405c-3.914-1.357-8.186,0.715-9.543,4.628
	s0.715,8.186,4.628,9.543c30.18,10.469,63.203,16.234,92.986,16.234c64.711,0,145.391-26.279,184.688-76.701
	c2.924,5.009,7.096,9.242,12.19,12.252c-9.694,23.543-26.678,54.819-55.064,81.366c-37.462,35.035-85.176,52.8-141.814,52.8
	s-104.351-17.765-141.813-52.8c-28.385-26.547-45.37-57.823-55.063-81.366C64.215,237.141,68.388,232.907,71.312,227.898z
	 M440.687,192.936c-39.298-50.422-119.977-76.702-184.688-76.702c-64.71,0-145.389,26.279-184.687,76.702
	c-2.923-5.009-7.096-9.242-12.19-12.253c9.693-23.543,26.678-54.819,55.063-81.365c37.463-35.035,85.176-52.8,141.813-52.8
	c56.639,0,104.352,17.765,141.814,52.8c28.385,26.546,45.37,57.822,55.064,81.365C447.783,183.694,443.61,187.927,440.687,192.936z
	 M116.093,456.006c-16.854,6.221-34.65,10.075-52.642,10.43c-0.669,0.013-1.338,0.025-2.005,0.028
	c0.911-5.227,2.025-10.266,3.335-15.079c0.141-0.005,0.279-0.015,0.419-0.02c18.798-0.685,37.247-5.562,54.484-12.949v16.224
	C118.492,455.107,117.295,455.562,116.093,456.006z M119.684,383.073v38.865c-0.471,0.225-0.94,0.449-1.424,0.675
	c-15.222,7.097-31.565,12.05-48.347,13.438C83.177,403.189,105.013,389.061,119.684,383.073z M59.434,481.468
	c0.434,0.004,0.867,0.006,1.298,0.006c20.085,0,40.089-4.016,58.952-10.805V497H58.486
	C58.639,491.668,58.957,486.472,59.434,481.468z M134.684,386.679c33.247,20.635,71.229,32.24,111.105,33.933
	c0.101,0.004,0.202,0.008,0.303,0.012c0.802,0.033,1.603,0.069,2.406,0.094V497H134.684V386.679z M263.499,420.718
	c0.803-0.025,1.604-0.061,2.406-0.094c0.101-0.004,0.203-0.007,0.304-0.012c39.876-1.693,77.859-13.299,111.105-33.933V497H263.499
	V420.718z M395.02,439.553c16.45,6.767,33.919,11.164,51.739,11.811c0.154,0.005,0.305,0.017,0.458,0.022
	c1.31,4.812,2.425,9.852,3.335,15.078c-0.667-0.003-1.336-0.015-2.005-0.028c-19.272-0.38-38.306-4.778-56.214-11.789l0.006-16.22
	c0.096,0.041,0.197,0.082,0.293,0.123C393.425,438.89,394.222,439.224,395.02,439.553z M392.317,497l0.01-26.327
	c0.571,0.206,1.141,0.398,1.712,0.597c18.765,6.56,38.607,10.377,58.524,10.198c0.479,5.015,0.796,10.206,0.949,15.532H392.317z
	 M442.087,436.05c-13.023-1.078-25.797-4.322-37.971-9.021c-3.989-1.54-7.911-3.237-11.77-5.077l0.015-38.861
	C407.033,389.091,428.844,403.228,442.087,436.05z M393.095,356.855c-27.98,23.355-62.147,38.924-97.961,45.45
	c-12.904,2.351-26.02,3.529-39.136,3.529c-36.123,0-72.174-8.996-103.876-26.359c-11.62-6.364-22.935-14.037-33.219-22.62
	c-24.91-20.792-43.952-46.719-55.832-75.441c10.171,16.982,23.512,34.825,40.869,51.058c40.332,37.719,91.492,56.844,152.059,56.844
	c60.568,0,111.728-19.125,152.06-56.844c17.357-16.232,30.696-34.074,40.868-51.056
	C437.047,310.138,418.004,336.064,393.095,356.855z M490.126,210.417c0,10.791-8.779,19.57-19.57,19.57
	c-9.879,0-18.579-7.874-19.477-17.726c-1.017-11.159,8.221-21.415,19.477-21.415C481.347,190.847,490.126,199.626,490.126,210.417z
	 M118.903,63.979C156.742,32.395,205.43,15,255.999,15s99.257,17.395,137.097,48.979c24.909,20.792,43.951,46.718,55.831,75.44
	c-10.171-16.982-23.511-34.824-40.868-51.056c-40.332-37.719-91.493-56.844-152.06-56.844S144.272,50.644,103.94,88.363
	c-17.357,16.232-30.697,34.074-40.868,51.056C74.951,110.697,93.994,84.771,118.903,63.979z M41.442,190.847
	c10.406,0,19.503,9.029,19.564,19.454c0,0.039,0.005,0.077,0.005,0.116s-0.005,0.077-0.005,0.117
	c-0.062,10.556-9.012,19.454-19.564,19.454c-10.791,0-19.57-8.779-19.57-19.57C21.872,199.626,30.651,190.847,41.442,190.847z"/>
<g>
</g>
<g>
</g>
<g>
</g>
<g>
</g>
<g>
</g>
<g>
</g>
<g>
</g>
<g>
</g>
<g>
</g>
<g>
</g>
<g>
</g>
<g>
</g>
<g>
</g>
<g>
</g>
<g>
</g>
</svg>
