<?xml version="1.0" encoding="iso-8859-1"?>
<!-- Generator: Adobe Illustrator 19.0.0, SVG Export Plug-In . SVG Version: 6.00 Build 0)  -->
<svg version="1.1" id="Capa_1" xmlns="http://www.w3.org/2000/svg" xmlns:xlink="http://www.w3.org/1999/xlink" x="0px" y="0px"
	 viewBox="0 0 512.002 512.002" style="enable-background:new 0 0 512.002 512.002;" xml:space="preserve">
<g>
	<path style="fill:#FBC4AC;" d="M116.792,460.174l-40.439-19.472l-33.109,19.472c-3.294,12.995-5.168,27.813-5.168,44.324h55.737
		l28.206-19.855L116.792,460.174z"/>
	<path style="fill:#FBC4AC;" d="M395.208,460.174l40.439-19.472l33.109,19.472c3.294,12.995,5.168,27.813,5.168,44.324h-55.737
		l-28.206-19.855L395.208,460.174z"/>
</g>
<path style="fill:#E3B098;" d="M58.076,504.498c0-16.51,1.874-31.329,5.168-44.324c1.286-5.084,2.793-9.883,4.485-14.4l-24.485,14.4
	c-0.412,1.625-0.801,3.277-1.168,4.958c-1.832,8.406-3.088,17.517-3.656,27.302c-0.227,3.914-0.344,7.936-0.344,12.063h20V504.498z"
	/>
<path style="fill:#3A484A;" d="M116.792,460.174H43.243c10.487-41.463,35.389-64.381,59.807-64.381L116.792,460.174z"/>
<path style="fill:#313D40;" d="M43.243,460.174h20l0,0c7.741-30.608,23.34-51.095,40.799-59.732l-0.397-1.86l-0.595-2.789
	C78.632,395.792,53.73,418.71,43.243,460.174z"/>
<path style="fill:#3A484A;" d="M395.208,460.174h73.548c-10.487-41.463-35.389-64.381-59.807-64.381L395.208,460.174z"/>
<g>
	<path style="fill:#007BAB;" d="M103.05,395.796c0,0-17.295,35.838-9.236,108.705h103.424l-39.343-38.28v-57.756L103.05,395.796z"/>
	<path style="fill:#007BAB;" d="M408.951,395.796c0,0,17.295,35.838,9.236,108.705H314.764l39.343-38.28v-57.756L408.951,395.796z"
		/>
</g>
<polygon style="fill:#3A484A;" points="197.237,504.501 314.764,504.501 354.107,466.221 354.107,408.465 377.892,395.796 
	354.107,358.768 157.894,358.768 157.894,408.465 157.894,466.221 "/>
<g>
	<path style="fill:#00A1E0;" d="M135.23,375.179l-38.058,7.094c0,0,9.501,34.922,47.731,51.711l-30.942,8.73
		c0,0,21.49,44.996,83.275,61.785l-34.329-112.057l-5.014-33.677L135.23,375.179z"/>
	<path style="fill:#00A1E0;" d="M376.771,375.179l38.058,7.094c0,0-9.501,34.922-47.731,51.711l30.942,8.73
		c0,0-21.49,44.996-83.275,61.785l34.329-112.057l5.014-33.677L376.771,375.179z"/>
</g>
<ellipse style="fill:#FBC4AC;" cx="256.001" cy="404.462" rx="54.06" ry="45.69"/>
<circle style="fill:#E3B098;" cx="451.173" cy="230.171" r="44.07"/>
<path style="fill:#FBC4AC;" d="M438.587,164.809C410.682,95.116,339.465,45.58,256,45.58S101.319,95.116,73.413,164.809
	c-8.14,20.314-12.588,42.349-12.588,65.359c0,101.943,87.384,184.588,195.175,184.588s195.175-82.645,195.175-184.588
	C451.176,207.158,446.727,185.123,438.587,164.809z"/>
<path style="fill:#E3B098;" d="M90.826,230.168c0-23.01,4.448-45.045,12.589-65.359c26.216-65.478,90.668-113.16,167.586-118.688
	c-4.951-0.356-9.953-0.541-15-0.541c-83.464,0-154.682,49.535-182.586,119.229c-2.818,7.033-5.182,14.277-7.084,21.692
	c-1.683-0.259-3.502-0.405-5.504-0.405c-24.34,0-44.072,19.732-44.072,44.072s19.732,44.072,44.072,44.072
	c2.004,0,3.825-0.146,5.509-0.405c20.743,80.865,97.784,140.921,189.666,140.921c5.047,0,10.049-0.181,15-0.537
	C170.218,406.974,90.826,327.338,90.826,230.168z"/>
<g>
	<path style="fill:#F98084;" d="M170.884,279.351h-25.981c-4.143,0-7.5-3.358-7.5-7.5s3.357-7.5,7.5-7.5h25.981
		c4.143,0,7.5,3.358,7.5,7.5S175.027,279.351,170.884,279.351z"/>
	<path style="fill:#F98084;" d="M367.097,279.351h-25.981c-4.143,0-7.5-3.358-7.5-7.5s3.357-7.5,7.5-7.5h25.981
		c4.143,0,7.5,3.358,7.5,7.5S371.24,279.351,367.097,279.351z"/>
</g>
<path style="fill:#2FC8B4;" d="M290.334,53.508C282.229,35.835,267.447,7.498,256,7.498c-11.446,0-26.228,28.337-34.333,46.01
	c-3.175,6.922-0.75,15.108,5.668,19.207c6.621,4.229,12.647,9.949,17.446,15.217c6.008,6.595,16.431,6.595,22.439,0
	c4.799-5.268,10.824-10.988,17.446-15.217C291.084,68.616,293.509,60.43,290.334,53.508z"/>
<path style="fill:#00AE95;" d="M230.246,72.698c8.721-19.015,22.896-46.738,36.315-58.986c-3.638-3.819-7.24-6.215-10.562-6.215
	c-11.446,0-26.228,28.337-34.333,46.01c-3.175,6.922-0.75,15.108,5.668,19.207c0.77,0.492,1.53,1.008,2.283,1.537
	C229.81,73.731,230.011,73.211,230.246,72.698z"/>
<path d="M165.393,243.814v-19.076c0-4.142-3.358-7.5-7.5-7.5s-7.5,3.358-7.5,7.5v19.076c0,4.142,3.358,7.5,7.5,7.5
	S165.393,247.956,165.393,243.814z"/>
<path d="M361.606,243.814v-19.076c0-4.142-3.358-7.5-7.5-7.5s-7.5,3.358-7.5,7.5v19.076c0,4.142,3.358,7.5,7.5,7.5
	S361.606,247.956,361.606,243.814z"/>
<path d="M256,278.275c9.003,0,17.457-3.764,23.194-10.327c2.726-3.119,2.408-7.857-0.711-10.583
	c-3.119-2.726-7.857-2.409-10.583,0.711c-2.888,3.304-7.226,5.199-11.9,5.199c-4.674,0-9.012-1.895-11.9-5.2
	c-2.727-3.119-7.464-3.437-10.583-0.711c-3.119,2.726-3.437,7.464-0.711,10.583C238.542,274.511,246.996,278.275,256,278.275z"/>
<path d="M451.292,178.601c-1.643-5.594-3.557-11.124-5.743-16.578c-25.112-62.719-83.41-108.674-152.73-120.745
	C274.644,4.507,263.19,0,256,0c-7.188,0-18.639,4.505-36.806,41.253c-35.655,6.202-68.909,21.415-96.392,44.141
	c-3.192,2.64-3.64,7.367-1,10.56c2.64,3.191,7.367,3.64,10.56,1c23.179-19.168,50.806-32.575,80.525-39.17
	c-0.731,8.331,3.35,16.744,10.409,21.254c11.033,7.049,18.162,21.343,32.703,21.343c5.519,0,10.838-2.025,14.946-5.619
	c6.019-5.267,10.938-11.368,17.757-15.724c5.665-3.619,9.574-9.913,10.346-16.65c0.009-0.078,0.011-0.156,0.019-0.234
	c0.134-1.258,0.158-2.715,0.06-4.05c-0.008-0.106-0.008-0.212-0.017-0.319c60.303,13.396,110.401,54.585,132.514,109.816
	c7.876,19.67,12.051,41.232,12.051,62.569c0,13.704-1.692,27.381-5.004,40.678c-14.484,57.919-59.188,104.946-117.483,125.386
	c-20.894,7.326-43.052,11.024-65.189,11.024c-22.419,0-44.871-3.802-65.998-11.315c-57.897-20.591-102.256-67.444-116.673-125.095
	c-8.456-33.814-6.032-70.607,7.047-103.25c7.353-18.362,17.877-35.382,31.282-50.588c2.739-3.107,2.441-7.846-0.667-10.585
	c-3.108-2.739-7.847-2.441-10.585,0.667c-14.54,16.494-25.964,34.975-33.954,54.929c-2.186,5.455-4.1,10.985-5.743,16.58
	c-28.383,0.063-51.455,23.171-51.455,51.569c0,18.511,9.808,34.768,24.495,43.867v15.348c0,4.142,3.358,7.5,7.5,7.5
	s7.5-3.358,7.5-7.5v-9.086c3.854,0.928,7.871,1.434,12.004,1.44c10.176,34.563,30.319,65.22,57.294,89.015
	c0,0-22.232,4.144-22.251,4.148c-4.236,0.79-6.994,5.183-5.862,9.342c0.092,0.338,0.656,2.334,1.892,5.43
	c-10.44,2.539-20.557,8.543-29.287,17.541c-12.065,12.435-21.252,30.111-26.567,51.123c-3.581,14.128-5.396,29.659-5.396,46.162
	c0,4.142,3.358,7.5,7.5,7.5h435.85c4.142,0,7.5-3.358,7.5-7.5c0-16.501-1.815-32.032-5.398-46.167
	c-5.313-21.007-14.499-38.683-26.565-51.118c-8.73-8.997-18.848-15.002-29.287-17.541c1.236-3.095,1.8-5.091,1.892-5.429
	c0.55-2.021,0.229-4.181-0.884-5.956c-1.113-1.774-2.918-3.002-4.978-3.386l-22.25-4.148c26.976-23.793,47.119-54.451,57.295-89.015
	c4.134-0.006,8.15-0.511,12.004-1.44v9.086c0,4.142,3.358,7.5,7.5,7.5c4.142,0,7.5-3.358,7.5-7.5V274.04
	c14.687-9.099,24.495-25.356,24.495-43.867C502.747,201.772,479.675,178.665,451.292,178.601z M255.97,14.999
	c0.084,0.008,8.556,1.844,25.161,36.555c1.916,3.998,4.615,8.14,1.848,12.481c-1.766,2.77-5.532,4.458-8.069,6.437
	c-4.393,3.427-8.824,7.57-13.235,12.412c-1.454,1.596-3.516,2.496-5.675,2.497c-3.863,0-5.915-2.823-8.348-5.337
	c-5.451-5.633-10.915-10.22-16.28-13.647c-5.688-3.634-2.801-10.043-0.522-14.801C247.467,16.844,255.943,15.007,255.97,14.999z
	 M56.968,266.541c-18.36-1.933-32.715-17.506-32.715-36.37c0-18.86,14.35-34.432,32.705-36.369
	c-1.8,8.901-2.939,17.937-3.396,27.072c-0.003,0.053-0.007,0.107-0.009,0.16C52.788,236.257,53.94,251.6,56.968,266.541z
	 M202.782,497.002l-27.795-90.726c3.647,1.505,7.345,2.895,11.08,4.193c3.067,1.066,6.158,2.068,9.27,2.997
	c4.987,25.163,30.537,44.184,60.662,44.184c30.126,0,55.677-19.022,60.662-44.184c0.12-0.036,0.239-0.075,0.359-0.111
	c6.769-2.039,13.453-4.376,19.989-7.073l-27.793,90.721L202.782,497.002z M263.069,422.128c11.579-0.377,35.825-4.186,36.551-4.337
	c-6.638,14.557-23.804,24.859-43.62,24.859c-19.815,0-36.981-10.301-43.619-24.859c0.725,0.151,1.454,0.281,2.181,0.424
	c13.637,2.689,27.537,4.042,41.438,4.042C257.794,422.258,262.505,422.147,263.069,422.128z M133.414,383.148
	c7.386,5.324,15.18,10.183,23.238,14.487l29.201,95.317c-0.023-0.009-0.048-0.017-0.071-0.026
	c-17.715-6.685-34.178-16.927-47.534-30.393c-5.727-5.773-9.916-11.162-12.759-15.274c0,0,21.406-6.04,21.451-6.053
	c6.614-1.866,7.274-11.32,0.979-14.085c-2.557-1.123-5.06-2.376-7.491-3.75c-15.899-8.986-25.305-21.344-30.596-30.819
	c-0.208-0.431-1.923-3.52-2.411-4.556L133.414,383.148z M91.775,405.266c-2.855,9.937-6.184,25.703-7.253,47.408H53.249
	C61.403,428.348,75.699,410.918,91.775,405.266z M45.711,497c0.379-10.313,1.547-20.131,3.489-29.324h34.967
	c0.009,4.44,0.126,9.101,0.344,13.939c0.23,5.133,0.569,10.266,1.019,15.385H45.711z M100.595,497.003
	c-0.726-7.904-1.189-15.834-1.343-23.771c-0.397-20.047,1.002-40.426,5.936-59.919c0.047-0.185,0.094-0.369,0.141-0.554
	c3.805,4.8,8.471,9.727,14.149,14.386c1.942,1.579,3.926,3.105,5.982,4.534c0,0-13.525,3.816-13.538,3.82
	c-4.403,1.242-6.703,6.319-4.732,10.449c4.21,8.823,10.662,16.79,17.251,23.934c9.94,10.777,21.695,19.899,34.473,27.073
	c0.028,0.016,0.054,0.032,0.082,0.047h-58.401V497.003z M353.086,496.954c18.066-10.183,34.163-24.184,45.92-41.331
	c2.897-4.225,8.32-10.577,5.865-15.998c-0.912-2.015-2.667-3.524-4.796-4.125l-13.538-3.82c2.118-1.471,4.104-2.993,6.004-4.552
	c5.676-4.659,10.349-9.595,14.156-14.403c0.78,3.007,1.582,6.505,2.336,10.494c0.002,0.01,0.004,0.02,0.006,0.03
	c4.593,24.114,4.608,49.029,2.393,73.408c-0.01,0.115-0.021,0.23-0.032,0.346h-58.398
	C353.031,496.987,353.058,496.97,353.086,496.954z M426.47,497c0.014-0.155,0.022-0.308,0.036-0.463
	c0.832-9.595,1.302-19.228,1.313-28.86h34.98c1.942,9.194,3.11,19.012,3.489,29.324H426.47V497z M458.749,452.676h-31.288
	c-0.018-0.363-0.046-0.719-0.066-1.082c-0.83-15.57-2.872-31.163-7.146-46.184c-0.014-0.049-0.027-0.101-0.042-0.15
	C436.29,410.905,450.594,428.34,458.749,452.676z M402.492,392c-8.321,14.216-19.793,25.873-34.607,33.328
	c-1.252,0.63-2.52,1.227-3.803,1.791c-6.307,2.77-5.641,12.217,0.979,14.086l21.451,6.052c-2.844,4.115-7.033,9.502-12.759,15.275
	c-5.834,5.883-12.283,11.151-19.151,15.781c-8.866,5.978-18.393,10.797-28.376,14.608c-0.027,0.01-0.053,0.021-0.08,0.031
	l29.201-95.318c8.055-4.303,15.85-9.162,23.24-14.487l25.958,4.839C403.96,389.22,403.277,390.568,402.492,392z M455.032,266.541
	c2.423-11.956,3.644-24.171,3.644-36.37c0-12.201-1.215-24.409-3.634-36.369c18.355,1.938,32.705,17.509,32.705,36.369
	C487.747,249.033,473.391,264.608,455.032,266.541z"/>
<g>
</g>
<g>
</g>
<g>
</g>
<g>
</g>
<g>
</g>
<g>
</g>
<g>
</g>
<g>
</g>
<g>
</g>
<g>
</g>
<g>
</g>
<g>
</g>
<g>
</g>
<g>
</g>
<g>
</g>
</svg>
