<?xml version="1.0" encoding="iso-8859-1"?>
<!-- Generator: Adobe Illustrator 19.0.0, SVG Export Plug-In . SVG Version: 6.00 Build 0)  -->
<svg version="1.1" id="Capa_1" xmlns="http://www.w3.org/2000/svg" xmlns:xlink="http://www.w3.org/1999/xlink" x="0px" y="0px"
	 viewBox="0 0 511.998 511.998" style="enable-background:new 0 0 511.998 511.998;" xml:space="preserve">
<g>
	<path style="fill:#FBC4AC;" d="M135.233,354.921c-2.845,1.635-6.231,3.793-9.985,6.56c-14.223,10.498-33.322,31.755-45.175,65.783
		c-6.599,18.974-10.962,41.914-10.962,69.17h66.122l21.431-58.859L135.233,354.921z"/>
	<path style="fill:#FBC4AC;" d="M376.767,354.921c2.845,1.635,6.231,3.793,9.985,6.56c14.223,10.498,33.322,31.755,45.175,65.783
		c6.599,18.974,10.962,41.914,10.962,69.17h-66.122l-21.431-58.859L376.767,354.921z"/>
</g>
<path style="fill:#E3B098;" d="M139.209,370.253c0,0-3.976-15.332-3.978-15.331c-0.711,0.408-1.455,0.849-2.231,1.326
	c-1.7,1.041-3.371,2.134-5.008,3.271c-0.889,0.617-1.805,1.27-2.743,1.962c-8.001,5.905-17.544,15.215-26.472,28.286
	c-13.221,19.357-21.583,41.744-25.902,64.707c-0.264,1.407-0.517,2.83-0.757,4.269c-1.916,11.514-3.007,24.063-3.007,37.691H93.3
	c0-27.256,4.364-50.196,10.962-69.17C113.442,400.909,126.968,382.22,139.209,370.253z"/>
<polygon style="fill:#DC5A64;" points="135.231,438.488 135.231,345.245 376.759,346.039 376.759,438.497 348.73,480.146 
	178.598,480.146 "/>
<path style="fill:#BF4E57;" d="M135.231,345.245v9.676l0,0v19.415c4.962-5.349,9.816-9.616,14.205-12.856
	c3.753-2.766,7.139-4.924,9.983-6.559v-9.597L135.231,345.245z"/>
<ellipse style="fill:#E3B098;" cx="256.002" cy="366.301" rx="77.403" ry="67.409"/>
<path style="fill:#EFEDEE;" d="M376.759,438.497v57.937H135.231v-57.946c27.382,19.409,71.279,31.987,120.769,31.987
	C305.48,470.475,349.378,457.897,376.759,438.497z"/>
<g>
	<path style="fill:#F2973D;" d="M351.328,42.394c23.189-43.829,96.663-32.329,105.608,22.617c4.41,27.09,26.526,39.48,47.816,45.079
		c0,0-11.504,33.392-55.082,35.522L351.328,42.394z"/>
	<path style="fill:#F2973D;" d="M160.672,42.394C137.483-1.436,64.008,10.065,55.064,65.011c-4.41,27.09-26.526,39.48-47.816,45.079
		c0,0,11.504,33.392,55.082,35.522L160.672,42.394z"/>
</g>
<path style="fill:#FFA74F;" d="M47.782,218.715c0-53.2,21.829-103.145,61.465-140.631c39.27-37.139,91.387-57.592,146.754-57.592
	s107.485,20.453,146.755,57.592c39.635,37.486,61.464,87.429,61.464,140.631H47.782z"/>
<circle style="fill:#E3B098;" cx="440.261" cy="228.445" r="40.629"/>
<path style="fill:#FBC4AC;" d="M256,392.979c101.763,0,184.26-78.021,184.26-174.264c0-0.105,0-0.21,0-0.315
	c-0.038-20.057-7.222-39.44-19.886-54.994c-28.132-34.552-88.806-85.384-164.373-9.587c-75.567-75.797-136.242-24.966-164.373,9.587
	c-12.664,15.554-19.848,34.936-19.886,54.994c0,0.105,0,0.21,0,0.315C71.741,314.958,154.237,392.979,256,392.979z"/>
<path style="fill:#E3B098;" d="M100.766,218.715c0-0.105,0-0.21,0-0.315c0.038-20.057,7.222-39.44,19.886-54.994
	c15.132-18.586,39.684-41.87,70.9-47.635c-45.082-8.257-80.369,23.615-99.926,47.635c-6.115,7.51-10.937,15.918-14.309,24.858
	c-1.676-0.293-3.526-0.449-5.577-0.449c-22.439,0-40.629,18.191-40.629,40.629c0,22.438,18.191,40.629,40.629,40.629
	c2.892,0,5.385-0.308,7.547-0.881c22.548,72.141,93.124,124.787,176.712,124.787c4.885,0,9.724-0.184,14.513-0.536
	C175.534,385.443,100.766,310.338,100.766,218.715z"/>
<g>
	<path style="fill:#F98084;" d="M175.549,263.272h-24.557c-4.008,0-7.257-3.249-7.257-7.257c0-4.008,3.249-7.257,7.257-7.257h24.557
		c4.008,0,7.257,3.249,7.257,7.257C182.805,260.023,179.556,263.272,175.549,263.272z"/>
	<path style="fill:#F98084;" d="M361.01,263.272h-24.557c-4.008,0-7.257-3.249-7.257-7.257c0-4.008,3.249-7.257,7.257-7.257h24.557
		c4.008,0,7.257,3.249,7.257,7.257C368.266,260.023,365.017,263.272,361.01,263.272z"/>
</g>
<g>
	<circle style="fill:#DC5A64;" cx="75.042" cy="274.375" r="15.365"/>
	<circle style="fill:#DC5A64;" cx="436.952" cy="274.375" r="15.365"/>
</g>
<path d="M163.269,236.77c4.008,0,7.257-3.249,7.257-7.257v-18.03c0-4.008-3.249-7.257-7.257-7.257c-4.009,0-7.257,3.249-7.257,7.257
	v18.03C156.012,233.521,159.26,236.77,163.269,236.77z"/>
<path d="M348.73,236.77c4.008,0,7.257-3.249,7.257-7.257v-18.03c0-4.008-3.249-7.257-7.257-7.257s-7.257,3.249-7.257,7.257v18.03
	C341.473,233.521,344.722,236.77,348.73,236.77z"/>
<path d="M277.36,242.195c-3.018-2.638-7.602-2.33-10.24,0.688c-2.698,3.086-6.753,4.857-11.122,4.857
	c-4.37,0-8.424-1.771-11.123-4.857c-2.638-3.017-7.222-3.325-10.24-0.688c-3.018,2.638-3.325,7.222-0.688,10.24
	c5.454,6.24,13.491,9.819,22.049,9.819c8.558,0,16.594-3.579,22.049-9.819C280.685,249.417,280.377,244.833,277.36,242.195z"/>
<path d="M506.597,103.071c-25.035-6.583-39.334-19.781-42.499-39.226c-2.753-16.912-11.153-31.215-24.291-41.363
	c-11.833-9.14-26.713-14.174-41.898-14.174c-20.527,0-38.5,9.133-49.36,24.74c-28.555-12.963-60.01-19.812-92.549-19.812
	c-32.539,0-63.993,6.848-92.548,19.812c-10.862-15.607-28.833-24.74-49.361-24.74c-15.186,0-30.066,5.033-41.899,14.173
	c-13.138,10.148-21.538,24.451-24.29,41.364c-3.165,19.446-17.464,32.643-42.499,39.226c-4.021,1.058-6.372,5.445-5.016,9.381
	c0.496,1.441,11.838,32.927,51.711,39.364c-4.464,12.458-7.665,25.403-9.563,38.717c-11.35,8.764-18.681,22.493-18.681,37.91
	c0,19.204,11.49,36.331,28.669,43.857c-0.063,0.685-0.1,1.377-0.1,2.077C52.422,286.852,62.57,297,75.043,297
	c2.626,0,5.146-0.455,7.494-1.281c10.555,21.356,25.316,40.438,43.515,56.353c-1.702,1.124-3.41,2.313-5.115,3.57
	c-9.554,7.05-33.325,27.911-47.72,69.238c-7.541,21.684-11.365,45.757-11.365,71.553c0,4.008,3.248,7.257,7.257,7.257
	c0,0,373.777,0,373.796,0c4.008,0,7.257-3.249,7.257-7.257c0-0.182-0.007-0.363-0.02-0.542c-0.053-25.591-3.876-49.48-11.365-71.015
	c-14.394-41.325-38.166-62.185-47.722-69.237c-1.704-1.256-3.411-2.445-5.112-3.568c18.2-15.915,32.96-34.998,43.516-56.354
	c2.347,0.826,4.868,1.281,7.494,1.281c12.474,0,22.621-10.148,22.621-22.621c0-0.701-0.037-1.392-0.1-2.077
	c17.181-7.526,28.669-24.653,28.669-43.857c0-15.418-7.331-29.147-18.682-37.912c-1.898-13.314-5.1-26.257-9.564-38.715
	c39.874-6.435,51.217-37.921,51.714-39.364C512.972,108.51,510.622,104.13,506.597,103.071z M17.633,114.504
	c25.524-8.932,40.877-25.51,44.591-48.328c4.849-29.789,30.284-43.356,51.864-43.356c14.85,0,27.888,6.152,36.156,16.763
	c-2.076,1.118-4.129,2.281-6.169,3.468c-0.032,0.018-0.063,0.038-0.096,0.056c-20.385,11.692-38.68,26.995-54.114,44.697
	c-13.343,15.308-24.132,32.146-32.183,50.151C34.54,135.279,22.835,122.579,17.633,114.504z M38.367,228.444
	c0-11.73,6.085-22.062,15.261-28.015c4.133-2.681,8.914-4.435,13.829-5.068c-4.772,18.369-3.385,37.617,0.152,56.069
	c0.094,0.491,0.179,0.983,0.277,1.472c-3.631,1.202-6.887,3.309-9.478,6.142C46.399,253.817,38.367,241.855,38.367,228.444z
	 M66.936,274.379c0-4.331,3.772-8.107,8.107-8.107c4.686,0,8.536,4.28,8.066,8.934c-0.002,0.016-0.006,0.033-0.008,0.049
	c-0.438,4.05-3.991,7.231-8.059,7.231C70.574,282.487,66.936,278.849,66.936,274.379z M259.704,400.214
	c5.758-0.111,11.512-0.464,17.24-1.045c15.013-1.529,29.628-4.703,43.65-9.463c-4.142,8.375-10.492,15.927-18.623,21.993
	c-26.354,19.662-65.592,19.66-91.944,0c-8.127-6.064-14.475-13.612-18.617-21.983c14.079,4.778,28.758,7.956,43.845,9.475
	c0.02,0.002,0.041,0.004,0.061,0.007C243.414,400.045,251.563,400.371,259.704,400.214z M86.925,429.65
	c12.311-35.345,31.767-53.885,41.049-61.129v69.966v50.69H76.474C77.118,467.758,80.625,447.762,86.925,429.65z M369.502,489.176
	H142.487V451.64c1.065,0.601,14.936,7.518,20.992,9.901c3.73,1.466,7.943-0.37,9.408-4.099c1.466-3.73-0.37-7.942-4.099-9.408
	c-9.14-3.592-18.026-7.939-26.242-13.339c-0.02-0.013-0.039-0.027-0.058-0.04l0.001-69.729c0.744,0.519,1.494,1.03,2.247,1.54
	c9.127,6.202,18.702,11.58,28.647,16.108c8.534,34.059,42.585,58.386,82.616,58.386c40.035,0,74.089-24.331,82.619-58.395
	c9.868-4.492,19.371-9.817,28.432-15.955c0.821-0.555,1.64-1.114,2.452-1.68v69.726c-0.396,0.26-0.798,0.517-1.2,0.774
	c-17.365,11.124-37.351,17.922-57.431,22.151c-18.02,3.796-36.461,5.634-54.871,5.634c-20.638,0-40.571-2.209-59.244-6.567
	c-3.904-0.91-7.805,1.514-8.716,5.418c-0.91,3.903,1.515,7.805,5.418,8.716c19.753,4.609,40.796,6.946,62.542,6.946
	c21.767,0,43.621-2.293,64.791-7.427c16.812-4.077,33.353-9.993,48.455-18.496c0.085-0.048,0.173-0.094,0.258-0.142L369.502,489.176
	L369.502,489.176z M425.072,429.647c6.3,18.115,9.808,38.112,10.451,59.53h-51.499l-0.002-120.658
	C393.307,375.767,412.763,394.307,425.072,429.647z M365.654,349.818c-0.028,0.02-0.059,0.034-0.086,0.054
	c-31.407,23.48-70.434,35.85-109.57,35.85c-39.384,0-78.861-12.753-110.337-36.43c-22.287-16.766-39.908-38.229-51.487-62.835
	c0.07-0.11,0.13-0.225,0.197-0.337c0.024-0.041,0.047-0.082,0.073-0.123c2.083-3.444,3.221-7.549,3.221-11.619
	c0-8.533-4.992-16.547-12.65-20.298c-0.73-0.358-1.472-0.69-2.238-0.966c-0.045-0.201-0.095-0.401-0.138-0.602
	c-2.423-11.085-3.644-22.453-3.644-33.798l0.001-0.301c0-18.152,6.764-36.311,18.257-50.426
	c31.162-38.274,60.579-46.308,79.77-46.308c24.344,0,49.187,12.536,73.837,37.262c2.795,2.804,7.485,2.8,10.278,0
	c24.65-24.726,49.493-37.262,73.837-37.262c32.648,0,60.147,22.206,79.77,46.308c15.821,19.432,20.026,44.593,17.181,69.087
	c-0.628,5.388-1.529,10.743-2.704,16.038c-0.134,0.048-0.26,0.108-0.392,0.159c-8.137,3.115-13.964,11.155-14.461,19.842
	c-0.266,4.647,0.958,9.408,3.455,13.342C406.125,311.317,388.268,332.978,365.654,349.818z M436.953,282.487
	c-4.371,0-8.111-3.713-8.108-8.114c0.004-4.392,3.715-8.102,8.108-8.102c4.376,0,8.108,3.739,8.108,8.107
	C445.061,278.849,441.424,282.487,436.953,282.487z M453.59,259.045c-2.59-2.833-5.847-4.941-9.478-6.142
	c0.099-0.49,0.183-0.982,0.277-1.472c1.453-7.56,2.401-15.214,2.837-22.9c0.632-11.149,0.134-22.323-2.686-33.169
	c0.97,0.124,1.936,0.279,2.892,0.489c15.104,3.32,26.199,17.139,26.199,32.595C473.632,241.855,465.598,253.817,453.59,259.045z
	 M452.094,182.036c-4.091-1.04-8.459-1.557-12.731-1.47c-0.094-0.212-0.197-0.419-0.292-0.63
	c-3.424-7.559-7.831-14.679-13.071-21.113c-24.04-29.526-58.512-54.796-98.498-51.333c-25.234,2.185-47.939,15.399-66.647,31.81
	c-1.622,1.422-3.24,2.891-4.856,4.407c-25.856-24.252-52.398-36.541-78.976-36.541c-22.338,0-56.263,8.962-91.025,51.657
	c-4.952,6.083-9.202,12.855-12.549,19.989c-0.274,0.583-0.552,1.166-0.815,1.754c-0.099,0.196-2.097,0.01-2.296,0.015
	c-3.951,0.107-7.895,0.711-11.697,1.793c2.296-11.46,5.67-22.586,10.065-33.299c0.125-0.226,0.241-0.459,0.341-0.698
	c18.004-43.26,52.729-78.739,94.623-99.374c28.196-13.888,59.671-21.258,92.328-21.258c32.64,0,64.099,7.362,92.283,21.236
	c30.425,14.976,57.175,37.744,76.371,65.738c13.94,20.329,23.86,43.475,28.704,67.655
	C452.938,182.258,452.517,182.144,452.094,182.036z M454.316,137.953c-8.055-18.012-18.85-34.857-32.202-50.171
	c-17.007-19.505-37.576-35.928-60.361-48.199c8.269-10.611,21.306-16.763,36.156-16.763c21.58,0,47.016,13.567,51.864,43.356
	c3.713,22.81,19.056,39.383,44.564,48.318C489.109,122.556,477.359,135.272,454.316,137.953z"/>
<g>
</g>
<g>
</g>
<g>
</g>
<g>
</g>
<g>
</g>
<g>
</g>
<g>
</g>
<g>
</g>
<g>
</g>
<g>
</g>
<g>
</g>
<g>
</g>
<g>
</g>
<g>
</g>
<g>
</g>
</svg>
